%TF.GenerationSoftware,KiCad,Pcbnew,9.0.7*%
%TF.CreationDate,2026-09-18T19:45:36+02:00*%
%TF.ProjectId,buzzer_equipe_esp32,62757a7a-6572-45f6-9571-756970655f65,rev?*%
%TF.SameCoordinates,Original*%
%TF.FileFunction,Copper,L2,Bot*%
%TF.FilePolarity,Positive*%
%FSLAX46Y46*%
G04 Gerber Fmt 4.6, Leading zero omitted, Abs format (unit mm)*
G04 Created by KiCad (PCBNEW 9.0.7) date 2026-09-18 19:45:36*
%MOMM*%
%LPD*%
G01*
G04 APERTURE LIST*
G04 Aperture macros list*
%AMRoundRect*
0 Rectangle with rounded corners*
0 $1 Rounding radius*
0 $2 $3 $4 $5 $6 $7 $8 $9 X,Y pos of 4 corners*
0 Add a 4 corners polygon primitive as box body*
4,1,4,$2,$3,$4,$5,$6,$7,$8,$9,$2,$3,0*
0 Add four circle primitives for the rounded corners*
1,1,$1+$1,$2,$3*
1,1,$1+$1,$4,$5*
1,1,$1+$1,$6,$7*
1,1,$1+$1,$8,$9*
0 Add four rect primitives between the rounded corners*
20,1,$1+$1,$2,$3,$4,$5,0*
20,1,$1+$1,$4,$5,$6,$7,0*
20,1,$1+$1,$6,$7,$8,$9,0*
20,1,$1+$1,$8,$9,$2,$3,0*%
G04 Aperture macros list end*
%TA.AperFunction,ComponentPad*%
%ADD10O,1.700000X1.700000*%
%TD*%
%TA.AperFunction,ComponentPad*%
%ADD11R,1.700000X1.700000*%
%TD*%
%TA.AperFunction,ComponentPad*%
%ADD12RoundRect,0.250000X-0.350000X-0.625000X0.350000X-0.625000X0.350000X0.625000X-0.350000X0.625000X0*%
%TD*%
%TA.AperFunction,ComponentPad*%
%ADD13O,1.200000X1.750000*%
%TD*%
%TA.AperFunction,ViaPad*%
%ADD14C,0.600000*%
%TD*%
%TA.AperFunction,Conductor*%
%ADD15C,0.200000*%
%TD*%
G04 APERTURE END LIST*
D10*
%TO.P,U1R,20*%
%TO.N,N/C*%
X32860000Y-61720000D03*
%TO.P,U1R,21*%
X32860000Y-59180000D03*
%TO.P,U1R,22*%
X32860000Y-56640000D03*
%TO.P,U1R,23*%
X32860000Y-54100000D03*
%TO.P,U1R,24*%
X32860000Y-51560000D03*
%TO.P,U1R,25*%
X32860000Y-49020000D03*
%TO.P,U1R,26*%
X32860000Y-46480000D03*
%TO.P,U1R,27*%
X32860000Y-43940000D03*
%TO.P,U1R,28*%
X32860000Y-41400000D03*
%TO.P,U1R,29*%
X32860000Y-38860000D03*
%TO.P,U1R,30*%
X32860000Y-36320000D03*
%TO.P,U1R,31*%
X32860000Y-33780000D03*
%TO.P,U1R,32*%
%TO.N,BTN_SIG*%
X32860000Y-31240000D03*
%TO.P,U1R,33*%
%TO.N,N/C*%
X32860000Y-28700000D03*
%TO.P,U1R,34*%
X32860000Y-26160000D03*
%TO.P,U1R,35*%
X32860000Y-23620000D03*
%TO.P,U1R,36*%
X32860000Y-21080000D03*
%TO.P,U1R,37*%
X32860000Y-18540000D03*
D11*
%TO.P,U1R,38*%
X32860000Y-16000000D03*
%TD*%
%TO.P,U1L,1*%
%TO.N,N/C*%
X10000000Y-16000000D03*
D10*
%TO.P,U1L,2*%
X10000000Y-18540000D03*
%TO.P,U1L,3*%
X10000000Y-21080000D03*
%TO.P,U1L,4*%
X10000000Y-23620000D03*
%TO.P,U1L,5*%
X10000000Y-26160000D03*
%TO.P,U1L,6*%
X10000000Y-28700000D03*
%TO.P,U1L,7*%
X10000000Y-31240000D03*
%TO.P,U1L,8*%
X10000000Y-33780000D03*
%TO.P,U1L,9*%
X10000000Y-36320000D03*
%TO.P,U1L,10*%
X10000000Y-38860000D03*
%TO.P,U1L,11*%
X10000000Y-41400000D03*
%TO.P,U1L,12*%
X10000000Y-43940000D03*
%TO.P,U1L,13*%
X10000000Y-46480000D03*
%TO.P,U1L,14*%
%TO.N,GND*%
X10000000Y-49020000D03*
%TO.P,U1L,15*%
%TO.N,VIBE_IN*%
X10000000Y-51560000D03*
%TO.P,U1L,16*%
%TO.N,N/C*%
X10000000Y-54100000D03*
%TO.P,U1L,17*%
X10000000Y-56640000D03*
%TO.P,U1L,18*%
X10000000Y-59180000D03*
%TO.P,U1L,19*%
%TO.N,VCC_5V_SW*%
X10000000Y-61720000D03*
%TD*%
D12*
%TO.P,BT1,1*%
%TO.N,BAT_PLUS*%
X58000000Y-75000000D03*
D13*
%TO.P,BT1,2*%
%TO.N,GND*%
X60000000Y-75000000D03*
%TD*%
D14*
%TO.N,GND*%
X12901700Y-74191100D03*
%TO.N,BAT_PLUS*%
X37887500Y-73403900D03*
%TO.N,VIBE_IN*%
X37543400Y-74684500D03*
%TD*%
D15*
%TO.N,GND*%
X12901700Y-74191100D02*
X14899100Y-76188500D01*
X60000000Y-75000000D02*
X59098300Y-75000000D01*
X59098300Y-75678300D02*
X59098300Y-75000000D01*
X14899100Y-76188500D02*
X58588100Y-76188500D01*
X58588100Y-76188500D02*
X59098300Y-75678300D01*
%TO.N,BAT_PLUS*%
X37887500Y-73403900D02*
X37601700Y-73403900D01*
X39483600Y-75000000D02*
X37887500Y-73403900D01*
X58000000Y-75000000D02*
X39483600Y-75000000D01*
%TO.N,VIBE_IN*%
X11151700Y-51560000D02*
X34276200Y-74684500D01*
X10000000Y-51560000D02*
X11151700Y-51560000D01*
X34276200Y-74684500D02*
X37543400Y-74684500D01*
%TD*%
M02*
