M48
; DRILL file {KiCad 9.0.7} date 2026-09-19T06:04:14+0200
; FORMAT={-:-/ absolute / metric / decimal}
; #@! TF.CreationDate,2026-09-19T06:04:14+02:00
; #@! TF.GenerationSoftware,Kicad,Pcbnew,9.0.7
; #@! TF.FileFunction,Plated,1,2,PTH
FMAT,2
METRIC
; #@! TA.AperFunction,Plated,PTH,ViaDrill
T1C0.300
; #@! TA.AperFunction,Plated,PTH,ComponentDrill
T2C0.750
; #@! TA.AperFunction,Plated,PTH,ComponentDrill
T3C1.000
%
G90
G05
T1
X16.843Y-35.6
X24.06Y-41.986
X27.308Y-44.486
X45.837Y-43.0
T2
X56.83Y-42.45
X58.83Y-42.45
T3
X8.0Y-12.0
X8.0Y-34.86
X10.54Y-12.0
X10.54Y-34.86
X13.08Y-12.0
X13.08Y-34.86
X15.62Y-12.0
X15.62Y-34.86
X18.16Y-12.0
X18.16Y-34.86
X20.7Y-12.0
X20.7Y-34.86
X23.24Y-12.0
X23.24Y-34.86
X25.78Y-12.0
X25.78Y-34.86
X28.32Y-12.0
X28.32Y-34.86
X30.86Y-12.0
X30.86Y-34.86
X33.4Y-12.0
X33.4Y-34.86
X35.94Y-12.0
X35.94Y-34.86
X38.48Y-12.0
X38.48Y-34.86
X41.02Y-12.0
X41.02Y-34.86
X43.56Y-12.0
X43.56Y-34.86
X46.1Y-12.0
X46.1Y-34.86
X48.64Y-12.0
X48.64Y-34.86
X51.18Y-12.0
X51.18Y-34.86
X53.72Y-12.0
X53.72Y-34.86
M30
