%TF.GenerationSoftware,KiCad,Pcbnew,9.0.7*%
%TF.CreationDate,2026-09-19T06:04:11+02:00*%
%TF.ProjectId,buzzer_equipe_esp32,62757a7a-6572-45f6-9571-756970655f65,rev?*%
%TF.SameCoordinates,Original*%
%TF.FileFunction,Copper,L2,Bot*%
%TF.FilePolarity,Positive*%
%FSLAX46Y46*%
G04 Gerber Fmt 4.6, Leading zero omitted, Abs format (unit mm)*
G04 Created by KiCad (PCBNEW 9.0.7) date 2026-09-19 06:04:11*
%MOMM*%
%LPD*%
G01*
G04 APERTURE LIST*
G04 Aperture macros list*
%AMRoundRect*
0 Rectangle with rounded corners*
0 $1 Rounding radius*
0 $2 $3 $4 $5 $6 $7 $8 $9 X,Y pos of 4 corners*
0 Add a 4 corners polygon primitive as box body*
4,1,4,$2,$3,$4,$5,$6,$7,$8,$9,$2,$3,0*
0 Add four circle primitives for the rounded corners*
1,1,$1+$1,$2,$3*
1,1,$1+$1,$4,$5*
1,1,$1+$1,$6,$7*
1,1,$1+$1,$8,$9*
0 Add four rect primitives between the rounded corners*
20,1,$1+$1,$2,$3,$4,$5,0*
20,1,$1+$1,$4,$5,$6,$7,0*
20,1,$1+$1,$6,$7,$8,$9,0*
20,1,$1+$1,$8,$9,$2,$3,0*%
G04 Aperture macros list end*
%TA.AperFunction,ComponentPad*%
%ADD10R,1.700000X1.700000*%
%TD*%
%TA.AperFunction,ComponentPad*%
%ADD11O,1.700000X1.700000*%
%TD*%
%TA.AperFunction,ComponentPad*%
%ADD12RoundRect,0.250000X-0.350000X-0.625000X0.350000X-0.625000X0.350000X0.625000X-0.350000X0.625000X0*%
%TD*%
%TA.AperFunction,ComponentPad*%
%ADD13O,1.200000X1.750000*%
%TD*%
%TA.AperFunction,ViaPad*%
%ADD14C,0.600000*%
%TD*%
%TA.AperFunction,Conductor*%
%ADD15C,0.200000*%
%TD*%
G04 APERTURE END LIST*
D10*
%TO.P,U1L,1*%
%TO.N,N/C*%
X8000000Y-12000000D03*
D11*
%TO.P,U1L,2*%
X10540000Y-12000000D03*
%TO.P,U1L,3*%
X13080000Y-12000000D03*
%TO.P,U1L,4*%
X15620000Y-12000000D03*
%TO.P,U1L,5*%
X18160000Y-12000000D03*
%TO.P,U1L,6*%
X20700000Y-12000000D03*
%TO.P,U1L,7*%
X23240000Y-12000000D03*
%TO.P,U1L,8*%
X25780000Y-12000000D03*
%TO.P,U1L,9*%
X28320000Y-12000000D03*
%TO.P,U1L,10*%
X30860000Y-12000000D03*
%TO.P,U1L,11*%
X33400000Y-12000000D03*
%TO.P,U1L,12*%
X35940000Y-12000000D03*
%TO.P,U1L,13*%
X38480000Y-12000000D03*
%TO.P,U1L,14*%
%TO.N,GND*%
X41020000Y-12000000D03*
%TO.P,U1L,15*%
%TO.N,VIBE_IN*%
X43560000Y-12000000D03*
%TO.P,U1L,16*%
%TO.N,N/C*%
X46100000Y-12000000D03*
%TO.P,U1L,17*%
X48640000Y-12000000D03*
%TO.P,U1L,18*%
X51180000Y-12000000D03*
%TO.P,U1L,19*%
%TO.N,VCC_5V_SW*%
X53720000Y-12000000D03*
%TD*%
%TO.P,U1R,20*%
%TO.N,N/C*%
X53720000Y-34860000D03*
%TO.P,U1R,21*%
X51180000Y-34860000D03*
%TO.P,U1R,22*%
X48640000Y-34860000D03*
%TO.P,U1R,23*%
X46100000Y-34860000D03*
%TO.P,U1R,24*%
X43560000Y-34860000D03*
%TO.P,U1R,25*%
X41020000Y-34860000D03*
%TO.P,U1R,26*%
X38480000Y-34860000D03*
%TO.P,U1R,27*%
X35940000Y-34860000D03*
%TO.P,U1R,28*%
X33400000Y-34860000D03*
%TO.P,U1R,29*%
X30860000Y-34860000D03*
%TO.P,U1R,30*%
X28320000Y-34860000D03*
%TO.P,U1R,31*%
X25780000Y-34860000D03*
%TO.P,U1R,32*%
%TO.N,BTN_SIG*%
X23240000Y-34860000D03*
%TO.P,U1R,33*%
%TO.N,N/C*%
X20700000Y-34860000D03*
%TO.P,U1R,34*%
X18160000Y-34860000D03*
%TO.P,U1R,35*%
X15620000Y-34860000D03*
%TO.P,U1R,36*%
X13080000Y-34860000D03*
%TO.P,U1R,37*%
X10540000Y-34860000D03*
D10*
%TO.P,U1R,38*%
X8000000Y-34860000D03*
%TD*%
D12*
%TO.P,BT1,1*%
%TO.N,BAT_PLUS*%
X56830000Y-42450000D03*
D13*
%TO.P,BT1,2*%
%TO.N,GND*%
X58830000Y-42450000D03*
%TD*%
D14*
%TO.N,GND*%
X27308500Y-44485600D03*
%TO.N,BAT_PLUS*%
X24060300Y-41986200D03*
%TO.N,VCC_5V_RAW*%
X45837400Y-43000000D03*
X16842900Y-35600500D03*
%TD*%
D15*
%TO.N,GND*%
X57928300Y-42450000D02*
X57928300Y-43126300D01*
X56569000Y-44485600D02*
X27308500Y-44485600D01*
X58830000Y-42450000D02*
X57928300Y-42450000D01*
X57928300Y-43126300D02*
X56569000Y-44485600D01*
%TO.N,BAT_PLUS*%
X56830000Y-42450000D02*
X56366200Y-41986200D01*
X56366200Y-41986200D02*
X24060300Y-41986200D01*
%TO.N,VCC_5V_RAW*%
X16842900Y-35600500D02*
X16842900Y-35619600D01*
X46168300Y-43000000D02*
X45837400Y-43000000D01*
X24223300Y-43000000D02*
X45837400Y-43000000D01*
X16842900Y-35619600D02*
X24223300Y-43000000D01*
%TD*%
M02*
