M48
; DRILL file {KiCad 9.0.7} date 2026-09-18T19:45:40+0200
; FORMAT={-:-/ absolute / metric / decimal}
; #@! TF.CreationDate,2026-09-18T19:45:40+02:00
; #@! TF.GenerationSoftware,Kicad,Pcbnew,9.0.7
; #@! TF.FileFunction,Plated,1,2,PTH
FMAT,2
METRIC
; #@! TA.AperFunction,Plated,PTH,ViaDrill
T1C0.300
; #@! TA.AperFunction,Plated,PTH,ComponentDrill
T2C0.750
; #@! TA.AperFunction,Plated,PTH,ComponentDrill
T3C1.000
%
G90
G05
T1
X12.902Y-74.191
X37.543Y-74.684
X37.887Y-73.404
T2
X58.0Y-75.0
X60.0Y-75.0
T3
X10.0Y-16.0
X10.0Y-18.54
X10.0Y-21.08
X10.0Y-23.62
X10.0Y-26.16
X10.0Y-28.7
X10.0Y-31.24
X10.0Y-33.78
X10.0Y-36.32
X10.0Y-38.86
X10.0Y-41.4
X10.0Y-43.94
X10.0Y-46.48
X10.0Y-49.02
X10.0Y-51.56
X10.0Y-54.1
X10.0Y-56.64
X10.0Y-59.18
X10.0Y-61.72
X32.86Y-16.0
X32.86Y-18.54
X32.86Y-21.08
X32.86Y-23.62
X32.86Y-26.16
X32.86Y-28.7
X32.86Y-31.24
X32.86Y-33.78
X32.86Y-36.32
X32.86Y-38.86
X32.86Y-41.4
X32.86Y-43.94
X32.86Y-46.48
X32.86Y-49.02
X32.86Y-51.56
X32.86Y-54.1
X32.86Y-56.64
X32.86Y-59.18
X32.86Y-61.72
M30
