%TF.GenerationSoftware,KiCad,Pcbnew,9.0.7*%
%TF.CreationDate,2026-09-19T06:04:11+02:00*%
%TF.ProjectId,buzzer_equipe_esp32,62757a7a-6572-45f6-9571-756970655f65,rev?*%
%TF.SameCoordinates,Original*%
%TF.FileFunction,Legend,Top*%
%TF.FilePolarity,Positive*%
%FSLAX46Y46*%
G04 Gerber Fmt 4.6, Leading zero omitted, Abs format (unit mm)*
G04 Created by KiCad (PCBNEW 9.0.7) date 2026-09-19 06:04:11*
%MOMM*%
%LPD*%
G01*
G04 APERTURE LIST*
%ADD10C,0.150000*%
%ADD11C,0.120000*%
G04 APERTURE END LIST*
D10*
X3727255Y-3924890D02*
X3884398Y-3977271D01*
X3884398Y-3977271D02*
X3936779Y-4029652D01*
X3936779Y-4029652D02*
X3989160Y-4134414D01*
X3989160Y-4134414D02*
X3989160Y-4291557D01*
X3989160Y-4291557D02*
X3936779Y-4396319D01*
X3936779Y-4396319D02*
X3884398Y-4448700D01*
X3884398Y-4448700D02*
X3779636Y-4501080D01*
X3779636Y-4501080D02*
X3360588Y-4501080D01*
X3360588Y-4501080D02*
X3360588Y-3401080D01*
X3360588Y-3401080D02*
X3727255Y-3401080D01*
X3727255Y-3401080D02*
X3832017Y-3453461D01*
X3832017Y-3453461D02*
X3884398Y-3505842D01*
X3884398Y-3505842D02*
X3936779Y-3610604D01*
X3936779Y-3610604D02*
X3936779Y-3715366D01*
X3936779Y-3715366D02*
X3884398Y-3820128D01*
X3884398Y-3820128D02*
X3832017Y-3872509D01*
X3832017Y-3872509D02*
X3727255Y-3924890D01*
X3727255Y-3924890D02*
X3360588Y-3924890D01*
X4460588Y-3401080D02*
X4460588Y-4291557D01*
X4460588Y-4291557D02*
X4512969Y-4396319D01*
X4512969Y-4396319D02*
X4565350Y-4448700D01*
X4565350Y-4448700D02*
X4670112Y-4501080D01*
X4670112Y-4501080D02*
X4879636Y-4501080D01*
X4879636Y-4501080D02*
X4984398Y-4448700D01*
X4984398Y-4448700D02*
X5036779Y-4396319D01*
X5036779Y-4396319D02*
X5089160Y-4291557D01*
X5089160Y-4291557D02*
X5089160Y-3401080D01*
X5508207Y-3401080D02*
X6241541Y-3401080D01*
X6241541Y-3401080D02*
X5508207Y-4501080D01*
X5508207Y-4501080D02*
X6241541Y-4501080D01*
X6555826Y-3401080D02*
X7289160Y-3401080D01*
X7289160Y-3401080D02*
X6555826Y-4501080D01*
X6555826Y-4501080D02*
X7289160Y-4501080D01*
X7708207Y-3924890D02*
X8074874Y-3924890D01*
X8232017Y-4501080D02*
X7708207Y-4501080D01*
X7708207Y-4501080D02*
X7708207Y-3401080D01*
X7708207Y-3401080D02*
X8232017Y-3401080D01*
X9332017Y-4501080D02*
X8965350Y-3977271D01*
X8703445Y-4501080D02*
X8703445Y-3401080D01*
X8703445Y-3401080D02*
X9122493Y-3401080D01*
X9122493Y-3401080D02*
X9227255Y-3453461D01*
X9227255Y-3453461D02*
X9279636Y-3505842D01*
X9279636Y-3505842D02*
X9332017Y-3610604D01*
X9332017Y-3610604D02*
X9332017Y-3767747D01*
X9332017Y-3767747D02*
X9279636Y-3872509D01*
X9279636Y-3872509D02*
X9227255Y-3924890D01*
X9227255Y-3924890D02*
X9122493Y-3977271D01*
X9122493Y-3977271D02*
X8703445Y-3977271D01*
X10641540Y-3924890D02*
X11008207Y-3924890D01*
X11165350Y-4501080D02*
X10641540Y-4501080D01*
X10641540Y-4501080D02*
X10641540Y-3401080D01*
X10641540Y-3401080D02*
X11165350Y-3401080D01*
X12370112Y-4605842D02*
X12265350Y-4553461D01*
X12265350Y-4553461D02*
X12160588Y-4448700D01*
X12160588Y-4448700D02*
X12003445Y-4291557D01*
X12003445Y-4291557D02*
X11898683Y-4239176D01*
X11898683Y-4239176D02*
X11793921Y-4239176D01*
X11846302Y-4501080D02*
X11741540Y-4448700D01*
X11741540Y-4448700D02*
X11636778Y-4343938D01*
X11636778Y-4343938D02*
X11584397Y-4134414D01*
X11584397Y-4134414D02*
X11584397Y-3767747D01*
X11584397Y-3767747D02*
X11636778Y-3558223D01*
X11636778Y-3558223D02*
X11741540Y-3453461D01*
X11741540Y-3453461D02*
X11846302Y-3401080D01*
X11846302Y-3401080D02*
X12055826Y-3401080D01*
X12055826Y-3401080D02*
X12160588Y-3453461D01*
X12160588Y-3453461D02*
X12265350Y-3558223D01*
X12265350Y-3558223D02*
X12317731Y-3767747D01*
X12317731Y-3767747D02*
X12317731Y-4134414D01*
X12317731Y-4134414D02*
X12265350Y-4343938D01*
X12265350Y-4343938D02*
X12160588Y-4448700D01*
X12160588Y-4448700D02*
X12055826Y-4501080D01*
X12055826Y-4501080D02*
X11846302Y-4501080D01*
X12789159Y-3401080D02*
X12789159Y-4291557D01*
X12789159Y-4291557D02*
X12841540Y-4396319D01*
X12841540Y-4396319D02*
X12893921Y-4448700D01*
X12893921Y-4448700D02*
X12998683Y-4501080D01*
X12998683Y-4501080D02*
X13208207Y-4501080D01*
X13208207Y-4501080D02*
X13312969Y-4448700D01*
X13312969Y-4448700D02*
X13365350Y-4396319D01*
X13365350Y-4396319D02*
X13417731Y-4291557D01*
X13417731Y-4291557D02*
X13417731Y-3401080D01*
X13941540Y-4501080D02*
X13941540Y-3401080D01*
X14465350Y-4501080D02*
X14465350Y-3401080D01*
X14465350Y-3401080D02*
X14884398Y-3401080D01*
X14884398Y-3401080D02*
X14989160Y-3453461D01*
X14989160Y-3453461D02*
X15041541Y-3505842D01*
X15041541Y-3505842D02*
X15093922Y-3610604D01*
X15093922Y-3610604D02*
X15093922Y-3767747D01*
X15093922Y-3767747D02*
X15041541Y-3872509D01*
X15041541Y-3872509D02*
X14989160Y-3924890D01*
X14989160Y-3924890D02*
X14884398Y-3977271D01*
X14884398Y-3977271D02*
X14465350Y-3977271D01*
X15565350Y-3924890D02*
X15932017Y-3924890D01*
X16089160Y-4501080D02*
X15565350Y-4501080D01*
X15565350Y-4501080D02*
X15565350Y-3401080D01*
X15565350Y-3401080D02*
X16089160Y-3401080D01*
X17398683Y-4082033D02*
X18236779Y-4082033D01*
X19598683Y-3924890D02*
X19965350Y-3924890D01*
X20122493Y-4501080D02*
X19598683Y-4501080D01*
X19598683Y-4501080D02*
X19598683Y-3401080D01*
X19598683Y-3401080D02*
X20122493Y-3401080D01*
X20541540Y-4448700D02*
X20698683Y-4501080D01*
X20698683Y-4501080D02*
X20960588Y-4501080D01*
X20960588Y-4501080D02*
X21065350Y-4448700D01*
X21065350Y-4448700D02*
X21117731Y-4396319D01*
X21117731Y-4396319D02*
X21170112Y-4291557D01*
X21170112Y-4291557D02*
X21170112Y-4186795D01*
X21170112Y-4186795D02*
X21117731Y-4082033D01*
X21117731Y-4082033D02*
X21065350Y-4029652D01*
X21065350Y-4029652D02*
X20960588Y-3977271D01*
X20960588Y-3977271D02*
X20751064Y-3924890D01*
X20751064Y-3924890D02*
X20646302Y-3872509D01*
X20646302Y-3872509D02*
X20593921Y-3820128D01*
X20593921Y-3820128D02*
X20541540Y-3715366D01*
X20541540Y-3715366D02*
X20541540Y-3610604D01*
X20541540Y-3610604D02*
X20593921Y-3505842D01*
X20593921Y-3505842D02*
X20646302Y-3453461D01*
X20646302Y-3453461D02*
X20751064Y-3401080D01*
X20751064Y-3401080D02*
X21012969Y-3401080D01*
X21012969Y-3401080D02*
X21170112Y-3453461D01*
X21641540Y-4501080D02*
X21641540Y-3401080D01*
X21641540Y-3401080D02*
X22060588Y-3401080D01*
X22060588Y-3401080D02*
X22165350Y-3453461D01*
X22165350Y-3453461D02*
X22217731Y-3505842D01*
X22217731Y-3505842D02*
X22270112Y-3610604D01*
X22270112Y-3610604D02*
X22270112Y-3767747D01*
X22270112Y-3767747D02*
X22217731Y-3872509D01*
X22217731Y-3872509D02*
X22165350Y-3924890D01*
X22165350Y-3924890D02*
X22060588Y-3977271D01*
X22060588Y-3977271D02*
X21641540Y-3977271D01*
X22636778Y-3401080D02*
X23317731Y-3401080D01*
X23317731Y-3401080D02*
X22951064Y-3820128D01*
X22951064Y-3820128D02*
X23108207Y-3820128D01*
X23108207Y-3820128D02*
X23212969Y-3872509D01*
X23212969Y-3872509D02*
X23265350Y-3924890D01*
X23265350Y-3924890D02*
X23317731Y-4029652D01*
X23317731Y-4029652D02*
X23317731Y-4291557D01*
X23317731Y-4291557D02*
X23265350Y-4396319D01*
X23265350Y-4396319D02*
X23212969Y-4448700D01*
X23212969Y-4448700D02*
X23108207Y-4501080D01*
X23108207Y-4501080D02*
X22793921Y-4501080D01*
X22793921Y-4501080D02*
X22689159Y-4448700D01*
X22689159Y-4448700D02*
X22636778Y-4396319D01*
X23736778Y-3505842D02*
X23789159Y-3453461D01*
X23789159Y-3453461D02*
X23893921Y-3401080D01*
X23893921Y-3401080D02*
X24155826Y-3401080D01*
X24155826Y-3401080D02*
X24260588Y-3453461D01*
X24260588Y-3453461D02*
X24312969Y-3505842D01*
X24312969Y-3505842D02*
X24365350Y-3610604D01*
X24365350Y-3610604D02*
X24365350Y-3715366D01*
X24365350Y-3715366D02*
X24312969Y-3872509D01*
X24312969Y-3872509D02*
X23684397Y-4501080D01*
X23684397Y-4501080D02*
X24365350Y-4501080D01*
X4063333Y-11454819D02*
X4063333Y-12264342D01*
X4063333Y-12264342D02*
X4110952Y-12359580D01*
X4110952Y-12359580D02*
X4158571Y-12407200D01*
X4158571Y-12407200D02*
X4253809Y-12454819D01*
X4253809Y-12454819D02*
X4444285Y-12454819D01*
X4444285Y-12454819D02*
X4539523Y-12407200D01*
X4539523Y-12407200D02*
X4587142Y-12359580D01*
X4587142Y-12359580D02*
X4634761Y-12264342D01*
X4634761Y-12264342D02*
X4634761Y-11454819D01*
X5634761Y-12454819D02*
X5063333Y-12454819D01*
X5349047Y-12454819D02*
X5349047Y-11454819D01*
X5349047Y-11454819D02*
X5253809Y-11597676D01*
X5253809Y-11597676D02*
X5158571Y-11692914D01*
X5158571Y-11692914D02*
X5063333Y-11740533D01*
X6539523Y-12454819D02*
X6063333Y-12454819D01*
X6063333Y-12454819D02*
X6063333Y-11454819D01*
X3968095Y-34314819D02*
X3968095Y-35124342D01*
X3968095Y-35124342D02*
X4015714Y-35219580D01*
X4015714Y-35219580D02*
X4063333Y-35267200D01*
X4063333Y-35267200D02*
X4158571Y-35314819D01*
X4158571Y-35314819D02*
X4349047Y-35314819D01*
X4349047Y-35314819D02*
X4444285Y-35267200D01*
X4444285Y-35267200D02*
X4491904Y-35219580D01*
X4491904Y-35219580D02*
X4539523Y-35124342D01*
X4539523Y-35124342D02*
X4539523Y-34314819D01*
X5539523Y-35314819D02*
X4968095Y-35314819D01*
X5253809Y-35314819D02*
X5253809Y-34314819D01*
X5253809Y-34314819D02*
X5158571Y-34457676D01*
X5158571Y-34457676D02*
X5063333Y-34552914D01*
X5063333Y-34552914D02*
X4968095Y-34600533D01*
X6539523Y-35314819D02*
X6206190Y-34838628D01*
X5968095Y-35314819D02*
X5968095Y-34314819D01*
X5968095Y-34314819D02*
X6349047Y-34314819D01*
X6349047Y-34314819D02*
X6444285Y-34362438D01*
X6444285Y-34362438D02*
X6491904Y-34410057D01*
X6491904Y-34410057D02*
X6539523Y-34505295D01*
X6539523Y-34505295D02*
X6539523Y-34648152D01*
X6539523Y-34648152D02*
X6491904Y-34743390D01*
X6491904Y-34743390D02*
X6444285Y-34791009D01*
X6444285Y-34791009D02*
X6349047Y-34838628D01*
X6349047Y-34838628D02*
X5968095Y-34838628D01*
X4766667Y-39267200D02*
X4909524Y-39314819D01*
X4909524Y-39314819D02*
X5147619Y-39314819D01*
X5147619Y-39314819D02*
X5242857Y-39267200D01*
X5242857Y-39267200D02*
X5290476Y-39219580D01*
X5290476Y-39219580D02*
X5338095Y-39124342D01*
X5338095Y-39124342D02*
X5338095Y-39029104D01*
X5338095Y-39029104D02*
X5290476Y-38933866D01*
X5290476Y-38933866D02*
X5242857Y-38886247D01*
X5242857Y-38886247D02*
X5147619Y-38838628D01*
X5147619Y-38838628D02*
X4957143Y-38791009D01*
X4957143Y-38791009D02*
X4861905Y-38743390D01*
X4861905Y-38743390D02*
X4814286Y-38695771D01*
X4814286Y-38695771D02*
X4766667Y-38600533D01*
X4766667Y-38600533D02*
X4766667Y-38505295D01*
X4766667Y-38505295D02*
X4814286Y-38410057D01*
X4814286Y-38410057D02*
X4861905Y-38362438D01*
X4861905Y-38362438D02*
X4957143Y-38314819D01*
X4957143Y-38314819D02*
X5195238Y-38314819D01*
X5195238Y-38314819D02*
X5338095Y-38362438D01*
X5671429Y-38314819D02*
X5909524Y-39314819D01*
X5909524Y-39314819D02*
X6100000Y-38600533D01*
X6100000Y-38600533D02*
X6290476Y-39314819D01*
X6290476Y-39314819D02*
X6528572Y-38314819D01*
X7433333Y-39314819D02*
X6861905Y-39314819D01*
X7147619Y-39314819D02*
X7147619Y-38314819D01*
X7147619Y-38314819D02*
X7052381Y-38457676D01*
X7052381Y-38457676D02*
X6957143Y-38552914D01*
X6957143Y-38552914D02*
X6861905Y-38600533D01*
X21404761Y-38791009D02*
X21547618Y-38838628D01*
X21547618Y-38838628D02*
X21595237Y-38886247D01*
X21595237Y-38886247D02*
X21642856Y-38981485D01*
X21642856Y-38981485D02*
X21642856Y-39124342D01*
X21642856Y-39124342D02*
X21595237Y-39219580D01*
X21595237Y-39219580D02*
X21547618Y-39267200D01*
X21547618Y-39267200D02*
X21452380Y-39314819D01*
X21452380Y-39314819D02*
X21071428Y-39314819D01*
X21071428Y-39314819D02*
X21071428Y-38314819D01*
X21071428Y-38314819D02*
X21404761Y-38314819D01*
X21404761Y-38314819D02*
X21499999Y-38362438D01*
X21499999Y-38362438D02*
X21547618Y-38410057D01*
X21547618Y-38410057D02*
X21595237Y-38505295D01*
X21595237Y-38505295D02*
X21595237Y-38600533D01*
X21595237Y-38600533D02*
X21547618Y-38695771D01*
X21547618Y-38695771D02*
X21499999Y-38743390D01*
X21499999Y-38743390D02*
X21404761Y-38791009D01*
X21404761Y-38791009D02*
X21071428Y-38791009D01*
X22023809Y-39029104D02*
X22499999Y-39029104D01*
X21928571Y-39314819D02*
X22261904Y-38314819D01*
X22261904Y-38314819D02*
X22595237Y-39314819D01*
X22785714Y-38314819D02*
X23357142Y-38314819D01*
X23071428Y-39314819D02*
X23071428Y-38314819D01*
X24166666Y-39314819D02*
X23690476Y-39314819D01*
X23690476Y-39314819D02*
X23690476Y-38314819D01*
X24500000Y-38791009D02*
X24833333Y-38791009D01*
X24976190Y-39314819D02*
X24500000Y-39314819D01*
X24500000Y-39314819D02*
X24500000Y-38314819D01*
X24500000Y-38314819D02*
X24976190Y-38314819D01*
X25404762Y-39314819D02*
X25404762Y-38314819D01*
X25404762Y-38314819D02*
X25642857Y-38314819D01*
X25642857Y-38314819D02*
X25785714Y-38362438D01*
X25785714Y-38362438D02*
X25880952Y-38457676D01*
X25880952Y-38457676D02*
X25928571Y-38552914D01*
X25928571Y-38552914D02*
X25976190Y-38743390D01*
X25976190Y-38743390D02*
X25976190Y-38886247D01*
X25976190Y-38886247D02*
X25928571Y-39076723D01*
X25928571Y-39076723D02*
X25880952Y-39171961D01*
X25880952Y-39171961D02*
X25785714Y-39267200D01*
X25785714Y-39267200D02*
X25642857Y-39314819D01*
X25642857Y-39314819D02*
X25404762Y-39314819D01*
X57044285Y-39481009D02*
X57187142Y-39528628D01*
X57187142Y-39528628D02*
X57234761Y-39576247D01*
X57234761Y-39576247D02*
X57282380Y-39671485D01*
X57282380Y-39671485D02*
X57282380Y-39814342D01*
X57282380Y-39814342D02*
X57234761Y-39909580D01*
X57234761Y-39909580D02*
X57187142Y-39957200D01*
X57187142Y-39957200D02*
X57091904Y-40004819D01*
X57091904Y-40004819D02*
X56710952Y-40004819D01*
X56710952Y-40004819D02*
X56710952Y-39004819D01*
X56710952Y-39004819D02*
X57044285Y-39004819D01*
X57044285Y-39004819D02*
X57139523Y-39052438D01*
X57139523Y-39052438D02*
X57187142Y-39100057D01*
X57187142Y-39100057D02*
X57234761Y-39195295D01*
X57234761Y-39195295D02*
X57234761Y-39290533D01*
X57234761Y-39290533D02*
X57187142Y-39385771D01*
X57187142Y-39385771D02*
X57139523Y-39433390D01*
X57139523Y-39433390D02*
X57044285Y-39481009D01*
X57044285Y-39481009D02*
X56710952Y-39481009D01*
X57568095Y-39004819D02*
X58139523Y-39004819D01*
X57853809Y-40004819D02*
X57853809Y-39004819D01*
X58996666Y-40004819D02*
X58425238Y-40004819D01*
X58710952Y-40004819D02*
X58710952Y-39004819D01*
X58710952Y-39004819D02*
X58615714Y-39147676D01*
X58615714Y-39147676D02*
X58520476Y-39242914D01*
X58520476Y-39242914D02*
X58425238Y-39290533D01*
X39136666Y-42454819D02*
X39136666Y-43169104D01*
X39136666Y-43169104D02*
X39089047Y-43311961D01*
X39089047Y-43311961D02*
X38993809Y-43407200D01*
X38993809Y-43407200D02*
X38850952Y-43454819D01*
X38850952Y-43454819D02*
X38755714Y-43454819D01*
X39565238Y-42550057D02*
X39612857Y-42502438D01*
X39612857Y-42502438D02*
X39708095Y-42454819D01*
X39708095Y-42454819D02*
X39946190Y-42454819D01*
X39946190Y-42454819D02*
X40041428Y-42502438D01*
X40041428Y-42502438D02*
X40089047Y-42550057D01*
X40089047Y-42550057D02*
X40136666Y-42645295D01*
X40136666Y-42645295D02*
X40136666Y-42740533D01*
X40136666Y-42740533D02*
X40089047Y-42883390D01*
X40089047Y-42883390D02*
X39517619Y-43454819D01*
X39517619Y-43454819D02*
X40136666Y-43454819D01*
X27786666Y-42454819D02*
X27786666Y-43169104D01*
X27786666Y-43169104D02*
X27739047Y-43311961D01*
X27739047Y-43311961D02*
X27643809Y-43407200D01*
X27643809Y-43407200D02*
X27500952Y-43454819D01*
X27500952Y-43454819D02*
X27405714Y-43454819D01*
X28167619Y-42454819D02*
X28786666Y-42454819D01*
X28786666Y-42454819D02*
X28453333Y-42835771D01*
X28453333Y-42835771D02*
X28596190Y-42835771D01*
X28596190Y-42835771D02*
X28691428Y-42883390D01*
X28691428Y-42883390D02*
X28739047Y-42931009D01*
X28739047Y-42931009D02*
X28786666Y-43026247D01*
X28786666Y-43026247D02*
X28786666Y-43264342D01*
X28786666Y-43264342D02*
X28739047Y-43359580D01*
X28739047Y-43359580D02*
X28691428Y-43407200D01*
X28691428Y-43407200D02*
X28596190Y-43454819D01*
X28596190Y-43454819D02*
X28310476Y-43454819D01*
X28310476Y-43454819D02*
X28215238Y-43407200D01*
X28215238Y-43407200D02*
X28167619Y-43359580D01*
X13466667Y-39267200D02*
X13609524Y-39314819D01*
X13609524Y-39314819D02*
X13847619Y-39314819D01*
X13847619Y-39314819D02*
X13942857Y-39267200D01*
X13942857Y-39267200D02*
X13990476Y-39219580D01*
X13990476Y-39219580D02*
X14038095Y-39124342D01*
X14038095Y-39124342D02*
X14038095Y-39029104D01*
X14038095Y-39029104D02*
X13990476Y-38933866D01*
X13990476Y-38933866D02*
X13942857Y-38886247D01*
X13942857Y-38886247D02*
X13847619Y-38838628D01*
X13847619Y-38838628D02*
X13657143Y-38791009D01*
X13657143Y-38791009D02*
X13561905Y-38743390D01*
X13561905Y-38743390D02*
X13514286Y-38695771D01*
X13514286Y-38695771D02*
X13466667Y-38600533D01*
X13466667Y-38600533D02*
X13466667Y-38505295D01*
X13466667Y-38505295D02*
X13514286Y-38410057D01*
X13514286Y-38410057D02*
X13561905Y-38362438D01*
X13561905Y-38362438D02*
X13657143Y-38314819D01*
X13657143Y-38314819D02*
X13895238Y-38314819D01*
X13895238Y-38314819D02*
X14038095Y-38362438D01*
X14371429Y-38314819D02*
X14609524Y-39314819D01*
X14609524Y-39314819D02*
X14800000Y-38600533D01*
X14800000Y-38600533D02*
X14990476Y-39314819D01*
X14990476Y-39314819D02*
X15228572Y-38314819D01*
X15561905Y-38410057D02*
X15609524Y-38362438D01*
X15609524Y-38362438D02*
X15704762Y-38314819D01*
X15704762Y-38314819D02*
X15942857Y-38314819D01*
X15942857Y-38314819D02*
X16038095Y-38362438D01*
X16038095Y-38362438D02*
X16085714Y-38410057D01*
X16085714Y-38410057D02*
X16133333Y-38505295D01*
X16133333Y-38505295D02*
X16133333Y-38600533D01*
X16133333Y-38600533D02*
X16085714Y-38743390D01*
X16085714Y-38743390D02*
X15514286Y-39314819D01*
X15514286Y-39314819D02*
X16133333Y-39314819D01*
D11*
%TO.C,U1L*%
X6670000Y-10670000D02*
X8000000Y-10670000D01*
X6670000Y-12000000D02*
X6670000Y-10670000D01*
X9270000Y-10670000D02*
X55050000Y-10670000D01*
X9270000Y-13330000D02*
X9270000Y-10670000D01*
X9270000Y-13330000D02*
X55050000Y-13330000D01*
X55050000Y-13330000D02*
X55050000Y-10670000D01*
%TO.C,U1R*%
X6670000Y-33530000D02*
X8000000Y-33530000D01*
X6670000Y-34860000D02*
X6670000Y-33530000D01*
X9270000Y-33530000D02*
X55050000Y-33530000D01*
X9270000Y-36190000D02*
X9270000Y-33530000D01*
X9270000Y-36190000D02*
X55050000Y-36190000D01*
X55050000Y-36190000D02*
X55050000Y-33530000D01*
%TO.C,SW1*%
X3560000Y-40970000D02*
X4770000Y-40970000D01*
X4770000Y-40300000D02*
X4770000Y-40970000D01*
X4770000Y-40300000D02*
X7430000Y-40300000D01*
X4770000Y-42490000D02*
X4770000Y-45700000D01*
X4770000Y-45700000D02*
X7430000Y-45700000D01*
X7430000Y-40300000D02*
X7430000Y-43510000D01*
X7430000Y-45030000D02*
X7430000Y-45700000D01*
%TO.C,BATLED*%
X20960000Y-40970000D02*
X22170000Y-40970000D01*
X22170000Y-40300000D02*
X22170000Y-40970000D01*
X22170000Y-40300000D02*
X24830000Y-40300000D01*
X22170000Y-42490000D02*
X22170000Y-45700000D01*
X22170000Y-45700000D02*
X24830000Y-45700000D01*
X24830000Y-40300000D02*
X24830000Y-43510000D01*
X24830000Y-45030000D02*
X24830000Y-45700000D01*
%TO.C,BT1*%
X54470000Y-40340000D02*
X54470000Y-41590000D01*
X54770000Y-40640000D02*
X54770000Y-45360000D01*
X54770000Y-41950000D02*
X55380000Y-41950000D01*
X54770000Y-43250000D02*
X55380000Y-43250000D01*
X54770000Y-45360000D02*
X60890000Y-45360000D01*
X55380000Y-41250000D02*
X55380000Y-44750000D01*
X55380000Y-44750000D02*
X60280000Y-44750000D01*
X55720000Y-40340000D02*
X54470000Y-40340000D01*
X56230000Y-40440000D02*
X56230000Y-40640000D01*
X56530000Y-40440000D02*
X56230000Y-40440000D01*
X56530000Y-40540000D02*
X56230000Y-40540000D01*
X56530000Y-40640000D02*
X56530000Y-40440000D01*
X57330000Y-40640000D02*
X57330000Y-41250000D01*
X57330000Y-41250000D02*
X55380000Y-41250000D01*
X57730000Y-44250000D02*
X57930000Y-44250000D01*
X57730000Y-44750000D02*
X57730000Y-44250000D01*
X57830000Y-44750000D02*
X57830000Y-44250000D01*
X57930000Y-44250000D02*
X57930000Y-44750000D01*
X58330000Y-41250000D02*
X58330000Y-40640000D01*
X60280000Y-41250000D02*
X58330000Y-41250000D01*
X60280000Y-44750000D02*
X60280000Y-41250000D01*
X60890000Y-40640000D02*
X54770000Y-40640000D01*
X60890000Y-41950000D02*
X60280000Y-41950000D01*
X60890000Y-43250000D02*
X60280000Y-43250000D01*
X60890000Y-45360000D02*
X60890000Y-40640000D01*
%TO.C,J2*%
X40910000Y-41670000D02*
X44120000Y-41670000D01*
X40910000Y-44330000D02*
X40910000Y-41670000D01*
X40910000Y-44330000D02*
X41580000Y-44330000D01*
X41580000Y-45540000D02*
X41580000Y-44330000D01*
X43100000Y-44330000D02*
X46660000Y-44330000D01*
X45640000Y-41670000D02*
X49200000Y-41670000D01*
X48180000Y-44330000D02*
X51390000Y-44330000D01*
X50720000Y-41670000D02*
X51390000Y-41670000D01*
X51390000Y-44330000D02*
X51390000Y-41670000D01*
%TO.C,J3*%
X29560000Y-41670000D02*
X32770000Y-41670000D01*
X29560000Y-44330000D02*
X29560000Y-41670000D01*
X29560000Y-44330000D02*
X30230000Y-44330000D01*
X30230000Y-45540000D02*
X30230000Y-44330000D01*
X31750000Y-44330000D02*
X35310000Y-44330000D01*
X34290000Y-41670000D02*
X37500000Y-41670000D01*
X36830000Y-44330000D02*
X37500000Y-44330000D01*
X37500000Y-44330000D02*
X37500000Y-41670000D01*
%TO.C,SW2*%
X12260000Y-40970000D02*
X13470000Y-40970000D01*
X13470000Y-40300000D02*
X13470000Y-40970000D01*
X13470000Y-40300000D02*
X16130000Y-40300000D01*
X13470000Y-42490000D02*
X13470000Y-45700000D01*
X13470000Y-45700000D02*
X16130000Y-45700000D01*
X16130000Y-40300000D02*
X16130000Y-43510000D01*
X16130000Y-45030000D02*
X16130000Y-45700000D01*
%TD*%
M02*
