M48
; DRILL file {KiCad 9.0.7} date 2026-09-18T19:44:56+0200
; FORMAT={-:-/ absolute / metric / decimal}
; #@! TF.CreationDate,2026-09-18T19:44:56+02:00
; #@! TF.GenerationSoftware,Kicad,Pcbnew,9.0.7
; #@! TF.FileFunction,Plated,1,2,PTH
FMAT,2
METRIC
; #@! TA.AperFunction,Plated,PTH,ViaDrill
T1C0.300
; #@! TA.AperFunction,Plated,PTH,ComponentDrill
T2C0.750
; #@! TA.AperFunction,Plated,PTH,ComponentDrill
T3C1.000
%
G90
G05
T1
X12.747Y-33.163
X30.362Y-61.057
X53.527Y-45.062
T2
X55.0Y-65.0
X57.0Y-65.0
T3
X10.0Y-15.0
X10.0Y-17.54
X10.0Y-20.08
X10.0Y-22.62
X10.0Y-25.16
X10.0Y-27.7
X10.0Y-30.24
X10.0Y-32.78
X10.0Y-35.32
X10.0Y-37.86
X10.0Y-40.4
X10.0Y-42.94
X10.0Y-45.48
X10.0Y-48.02
X10.0Y-50.56
X25.24Y-15.0
X25.24Y-17.54
X25.24Y-20.08
X25.24Y-22.62
X25.24Y-25.16
X25.24Y-27.7
X25.24Y-30.24
X25.24Y-32.78
X25.24Y-35.32
X25.24Y-37.86
X25.24Y-40.4
X25.24Y-42.94
X25.24Y-45.48
X25.24Y-48.02
X25.24Y-50.56
X55.0Y-15.0
X55.0Y-17.54
X55.0Y-20.08
X55.0Y-22.62
X57.54Y-15.0
X57.54Y-17.54
X57.54Y-20.08
X57.54Y-22.62
M30
