%TF.GenerationSoftware,KiCad,Pcbnew,9.0.7*%
%TF.CreationDate,2026-09-18T19:44:09+02:00*%
%TF.ProjectId,buzzer_equipe_nano,62757a7a-6572-45f6-9571-756970655f6e,rev?*%
%TF.SameCoordinates,Original*%
%TF.FileFunction,Copper,L2,Bot*%
%TF.FilePolarity,Positive*%
%FSLAX46Y46*%
G04 Gerber Fmt 4.6, Leading zero omitted, Abs format (unit mm)*
G04 Created by KiCad (PCBNEW 9.0.7) date 2026-09-18 19:44:09*
%MOMM*%
%LPD*%
G01*
G04 APERTURE LIST*
G04 Aperture macros list*
%AMRoundRect*
0 Rectangle with rounded corners*
0 $1 Rounding radius*
0 $2 $3 $4 $5 $6 $7 $8 $9 X,Y pos of 4 corners*
0 Add a 4 corners polygon primitive as box body*
4,1,4,$2,$3,$4,$5,$6,$7,$8,$9,$2,$3,0*
0 Add four circle primitives for the rounded corners*
1,1,$1+$1,$2,$3*
1,1,$1+$1,$4,$5*
1,1,$1+$1,$6,$7*
1,1,$1+$1,$8,$9*
0 Add four rect primitives between the rounded corners*
20,1,$1+$1,$2,$3,$4,$5,0*
20,1,$1+$1,$4,$5,$6,$7,0*
20,1,$1+$1,$6,$7,$8,$9,0*
20,1,$1+$1,$8,$9,$2,$3,0*%
G04 Aperture macros list end*
%TA.AperFunction,ComponentPad*%
%ADD10R,1.700000X1.700000*%
%TD*%
%TA.AperFunction,ComponentPad*%
%ADD11O,1.700000X1.700000*%
%TD*%
%TA.AperFunction,ComponentPad*%
%ADD12RoundRect,0.250000X-0.350000X-0.625000X0.350000X-0.625000X0.350000X0.625000X-0.350000X0.625000X0*%
%TD*%
%TA.AperFunction,ComponentPad*%
%ADD13O,1.200000X1.750000*%
%TD*%
%TA.AperFunction,ViaPad*%
%ADD14C,0.600000*%
%TD*%
%TA.AperFunction,Conductor*%
%ADD15C,0.200000*%
%TD*%
G04 APERTURE END LIST*
D10*
%TO.P,J1,1*%
%TO.N,GND*%
X55000000Y-15000000D03*
D11*
%TO.P,J1,2*%
%TO.N,+3V3*%
X57540000Y-15000000D03*
%TO.P,J1,3*%
%TO.N,NRF_CE*%
X55000000Y-17540000D03*
%TO.P,J1,4*%
%TO.N,NRF_CSN*%
X57540000Y-17540000D03*
%TO.P,J1,5*%
%TO.N,NRF_SCK*%
X55000000Y-20080000D03*
%TO.P,J1,6*%
%TO.N,NRF_MOSI*%
X57540000Y-20080000D03*
%TO.P,J1,7*%
%TO.N,NRF_MISO*%
X55000000Y-22620000D03*
%TO.P,J1,8*%
%TO.N,N/C*%
X57540000Y-22620000D03*
%TD*%
%TO.P,A1R,16*%
%TO.N,NRF_SCK*%
X25240000Y-50560000D03*
%TO.P,A1R,17*%
%TO.N,+3V3*%
X25240000Y-48020000D03*
%TO.P,A1R,18*%
%TO.N,N/C*%
X25240000Y-45480000D03*
%TO.P,A1R,19*%
X25240000Y-42940000D03*
%TO.P,A1R,20*%
X25240000Y-40400000D03*
%TO.P,A1R,21*%
X25240000Y-37860000D03*
%TO.P,A1R,22*%
X25240000Y-35320000D03*
%TO.P,A1R,23*%
X25240000Y-32780000D03*
%TO.P,A1R,24*%
X25240000Y-30240000D03*
%TO.P,A1R,25*%
X25240000Y-27700000D03*
%TO.P,A1R,26*%
X25240000Y-25160000D03*
%TO.P,A1R,27*%
X25240000Y-22620000D03*
%TO.P,A1R,28*%
X25240000Y-20080000D03*
%TO.P,A1R,29*%
X25240000Y-17540000D03*
D10*
%TO.P,A1R,30*%
%TO.N,VCC_5V_SW*%
X25240000Y-15000000D03*
%TD*%
D12*
%TO.P,BT1,1*%
%TO.N,BAT_PLUS*%
X55000000Y-65000000D03*
D13*
%TO.P,BT1,2*%
%TO.N,GND*%
X57000000Y-65000000D03*
%TD*%
D10*
%TO.P,A1L,1*%
%TO.N,N/C*%
X10000000Y-15000000D03*
D11*
%TO.P,A1L,2*%
X10000000Y-17540000D03*
%TO.P,A1L,3*%
X10000000Y-20080000D03*
%TO.P,A1L,4*%
%TO.N,GND*%
X10000000Y-22620000D03*
%TO.P,A1L,5*%
%TO.N,BTN_SIG*%
X10000000Y-25160000D03*
%TO.P,A1L,6*%
%TO.N,N/C*%
X10000000Y-27700000D03*
%TO.P,A1L,7*%
X10000000Y-30240000D03*
%TO.P,A1L,8*%
%TO.N,VIBE_IN*%
X10000000Y-32780000D03*
%TO.P,A1L,9*%
%TO.N,N/C*%
X10000000Y-35320000D03*
%TO.P,A1L,10*%
X10000000Y-37860000D03*
%TO.P,A1L,11*%
X10000000Y-40400000D03*
%TO.P,A1L,12*%
%TO.N,NRF_CE*%
X10000000Y-42940000D03*
%TO.P,A1L,13*%
%TO.N,NRF_CSN*%
X10000000Y-45480000D03*
%TO.P,A1L,14*%
%TO.N,NRF_MOSI*%
X10000000Y-48020000D03*
%TO.P,A1L,15*%
%TO.N,NRF_MISO*%
X10000000Y-50560000D03*
%TD*%
D14*
%TO.N,BAT_PLUS*%
X30362000Y-61057500D03*
%TO.N,VIBE_IN*%
X12747300Y-33162500D03*
%TO.N,NRF_SCK*%
X53527200Y-45062500D03*
%TD*%
D15*
%TO.N,GND*%
X53848300Y-15000000D02*
X52696600Y-16151700D01*
X52696600Y-16151700D02*
X17620000Y-16151700D01*
X17620000Y-16151700D02*
X11151700Y-22620000D01*
X10000000Y-22620000D02*
X11151700Y-22620000D01*
X55000000Y-15000000D02*
X53848300Y-15000000D01*
%TO.N,BAT_PLUS*%
X30362000Y-61057500D02*
X30229500Y-61057500D01*
X30362000Y-61057500D02*
X51057500Y-61057500D01*
X51057500Y-61057500D02*
X55000000Y-65000000D01*
%TO.N,VIBE_IN*%
X11151700Y-32780000D02*
X11534200Y-33162500D01*
X11534200Y-33162500D02*
X12745700Y-33162500D01*
X12745700Y-33162500D02*
X12747300Y-33162500D01*
X12747700Y-33162100D02*
X12747300Y-33162500D01*
X10000000Y-32780000D02*
X11151700Y-32780000D01*
%TO.N,NRF_CE*%
X55000000Y-17540000D02*
X53848300Y-17540000D01*
X28594600Y-41569300D02*
X28428300Y-41735600D01*
X28428300Y-41735600D02*
X12356100Y-41735600D01*
X53848300Y-17540000D02*
X29819000Y-41569300D01*
X12356100Y-41735600D02*
X11151700Y-42940000D01*
X10000000Y-42940000D02*
X11151700Y-42940000D01*
X29819000Y-41569300D02*
X28594600Y-41569300D01*
%TO.N,NRF_CSN*%
X10000000Y-45480000D02*
X11151700Y-45480000D01*
X56388300Y-17828000D02*
X55524600Y-18691700D01*
X53968100Y-18691700D02*
X28509800Y-44150000D01*
X57540000Y-17540000D02*
X56388300Y-17540000D01*
X12481700Y-44150000D02*
X11151700Y-45480000D01*
X55524600Y-18691700D02*
X53968100Y-18691700D01*
X28509800Y-44150000D02*
X12481700Y-44150000D01*
X56388300Y-17540000D02*
X56388300Y-17828000D01*
%TO.N,NRF_SCK*%
X48029700Y-50560000D02*
X25240000Y-50560000D01*
X53527200Y-45062500D02*
X48029700Y-50560000D01*
%TO.N,NRF_MOSI*%
X54298000Y-21350000D02*
X55386800Y-21350000D01*
X12303400Y-46868300D02*
X28779700Y-46868300D01*
X55386800Y-21350000D02*
X56388300Y-20348500D01*
X56388300Y-20348500D02*
X56388300Y-20080000D01*
X10000000Y-48020000D02*
X11151700Y-48020000D01*
X28779700Y-46868300D02*
X54298000Y-21350000D01*
X11151700Y-48020000D02*
X12303400Y-46868300D01*
X57540000Y-20080000D02*
X56388300Y-20080000D01*
%TO.N,NRF_MISO*%
X12303400Y-49408300D02*
X11151700Y-50560000D01*
X10000000Y-50560000D02*
X11151700Y-50560000D01*
X55000000Y-22620000D02*
X53848300Y-22620000D01*
X53848300Y-22620000D02*
X27060000Y-49408300D01*
X27060000Y-49408300D02*
X12303400Y-49408300D01*
%TD*%
M02*
