%TF.GenerationSoftware,KiCad,Pcbnew,9.0.7*%
%TF.CreationDate,2026-09-18T19:46:12+02:00*%
%TF.ProjectId,regie_hub_mega_esp32,72656769-655f-4687-9562-5f6d6567615f,rev?*%
%TF.SameCoordinates,Original*%
%TF.FileFunction,Copper,L2,Bot*%
%TF.FilePolarity,Positive*%
%FSLAX46Y46*%
G04 Gerber Fmt 4.6, Leading zero omitted, Abs format (unit mm)*
G04 Created by KiCad (PCBNEW 9.0.7) date 2026-09-18 19:46:12*
%MOMM*%
%LPD*%
G01*
G04 APERTURE LIST*
%TA.AperFunction,ComponentPad*%
%ADD10O,1.700000X1.700000*%
%TD*%
%TA.AperFunction,ComponentPad*%
%ADD11R,1.700000X1.700000*%
%TD*%
%TA.AperFunction,ViaPad*%
%ADD12C,0.600000*%
%TD*%
%TA.AperFunction,Conductor*%
%ADD13C,0.200000*%
%TD*%
G04 APERTURE END LIST*
D10*
%TO.P,U_ESP32R,16*%
%TO.N,MEGA_RX3_DIRECT*%
X67240000Y-50560000D03*
%TO.P,U_ESP32R,17*%
%TO.N,NRF_SCK*%
X67240000Y-48020000D03*
%TO.P,U_ESP32R,18*%
%TO.N,NRF_MISO*%
X67240000Y-45480000D03*
%TO.P,U_ESP32R,19*%
%TO.N,N/C*%
X67240000Y-42940000D03*
%TO.P,U_ESP32R,20*%
X67240000Y-40400000D03*
%TO.P,U_ESP32R,21*%
%TO.N,NRF_MOSI*%
X67240000Y-37860000D03*
%TO.P,U_ESP32R,22*%
%TO.N,MEGA_RX2_DIRECT*%
X67240000Y-35320000D03*
%TO.P,U_ESP32R,23*%
%TO.N,ESP32_RX1_3V3*%
X67240000Y-32780000D03*
%TO.P,U_ESP32R,24*%
%TO.N,N/C*%
X67240000Y-30240000D03*
%TO.P,U_ESP32R,25*%
X67240000Y-27700000D03*
%TO.P,U_ESP32R,26*%
X67240000Y-25160000D03*
%TO.P,U_ESP32R,27*%
X67240000Y-22620000D03*
%TO.P,U_ESP32R,28*%
X67240000Y-20080000D03*
%TO.P,U_ESP32R,29*%
X67240000Y-17540000D03*
D11*
%TO.P,U_ESP32R,30*%
X67240000Y-15000000D03*
%TD*%
%TO.P,J_NRF,1*%
%TO.N,GND*%
X96000000Y-15000000D03*
D10*
%TO.P,J_NRF,2*%
%TO.N,NRF_VCC_DEDIE*%
X98540000Y-15000000D03*
%TO.P,J_NRF,3*%
%TO.N,NRF_CE*%
X96000000Y-17540000D03*
%TO.P,J_NRF,4*%
%TO.N,NRF_CSN*%
X98540000Y-17540000D03*
%TO.P,J_NRF,5*%
%TO.N,NRF_SCK*%
X96000000Y-20080000D03*
%TO.P,J_NRF,6*%
%TO.N,NRF_MOSI*%
X98540000Y-20080000D03*
%TO.P,J_NRF,7*%
%TO.N,NRF_MISO*%
X96000000Y-22620000D03*
%TO.P,J_NRF,8*%
%TO.N,N/C*%
X98540000Y-22620000D03*
%TD*%
D11*
%TO.P,J_MEGA,1*%
%TO.N,MEGA_TX2_5V*%
X10000000Y-15000000D03*
D10*
%TO.P,J_MEGA,2*%
%TO.N,MEGA_RX2_DIRECT*%
X10000000Y-17540000D03*
%TO.P,J_MEGA,3*%
%TO.N,MEGA_TX3_5V*%
X10000000Y-20080000D03*
%TO.P,J_MEGA,4*%
%TO.N,MEGA_RX3_DIRECT*%
X10000000Y-22620000D03*
%TO.P,J_MEGA,5*%
%TO.N,VCC_5V_MEGA*%
X10000000Y-25160000D03*
%TO.P,J_MEGA,6*%
%TO.N,GND*%
X10000000Y-27700000D03*
%TD*%
D11*
%TO.P,U_REG,1*%
%TO.N,VCC_5V_MEGA*%
X60000000Y-65000000D03*
D10*
%TO.P,U_REG,2*%
%TO.N,GND*%
X60000000Y-67540000D03*
%TO.P,U_REG,3*%
%TO.N,NRF_VCC_DEDIE*%
X60000000Y-70080000D03*
%TD*%
D11*
%TO.P,U_ESP32L,1*%
%TO.N,N/C*%
X52000000Y-15000000D03*
D10*
%TO.P,U_ESP32L,2*%
%TO.N,GND*%
X52000000Y-17540000D03*
%TO.P,U_ESP32L,3*%
%TO.N,VCC_5V_MEGA*%
X52000000Y-20080000D03*
%TO.P,U_ESP32L,4*%
%TO.N,N/C*%
X52000000Y-22620000D03*
%TO.P,U_ESP32L,5*%
X52000000Y-25160000D03*
%TO.P,U_ESP32L,6*%
X52000000Y-27700000D03*
%TO.P,U_ESP32L,7*%
X52000000Y-30240000D03*
%TO.P,U_ESP32L,8*%
X52000000Y-32780000D03*
%TO.P,U_ESP32L,9*%
%TO.N,NRF_CE*%
X52000000Y-35320000D03*
%TO.P,U_ESP32L,10*%
%TO.N,NRF_CSN*%
X52000000Y-37860000D03*
%TO.P,U_ESP32L,11*%
%TO.N,N/C*%
X52000000Y-40400000D03*
%TO.P,U_ESP32L,12*%
X52000000Y-42940000D03*
%TO.P,U_ESP32L,13*%
X52000000Y-45480000D03*
%TO.P,U_ESP32L,14*%
X52000000Y-48020000D03*
%TO.P,U_ESP32L,15*%
%TO.N,ESP32_RX2_3V3*%
X52000000Y-50560000D03*
%TD*%
D12*
%TO.N,GND*%
X24285000Y-30147600D03*
%TO.N,VCC_5V_MEGA*%
X36214200Y-65792400D03*
%TO.N,MEGA_RX2_DIRECT*%
X63054900Y-18266000D03*
%TO.N,ESP32_RX1_3V3*%
X30249600Y-33118000D03*
%TO.N,ESP32_RX2_3V3*%
X33289100Y-50966900D03*
%TD*%
D13*
%TO.N,GND*%
X54540000Y-16151700D02*
X53151700Y-17540000D01*
X10000000Y-27700000D02*
X11151700Y-27700000D01*
X13599300Y-30147600D02*
X11151700Y-27700000D01*
X24285000Y-30147600D02*
X13599300Y-30147600D01*
X93696600Y-16151700D02*
X54540000Y-16151700D01*
X94848300Y-15000000D02*
X93696600Y-16151700D01*
X52000000Y-17540000D02*
X53151700Y-17540000D01*
X96000000Y-15000000D02*
X94848300Y-15000000D01*
%TO.N,VCC_5V_MEGA*%
X36214200Y-65792400D02*
X58055900Y-65792400D01*
X52000000Y-20080000D02*
X50848300Y-20080000D01*
X58055900Y-65792400D02*
X58848300Y-65000000D01*
X45768300Y-25160000D02*
X50848300Y-20080000D01*
X60000000Y-65000000D02*
X58848300Y-65000000D01*
X10000000Y-25160000D02*
X45768300Y-25160000D01*
%TO.N,MEGA_RX2_DIRECT*%
X12325000Y-18713300D02*
X62607600Y-18713300D01*
X62607600Y-18713300D02*
X63054900Y-18266000D01*
X11151700Y-17540000D02*
X12325000Y-18713300D01*
X10000000Y-17540000D02*
X11151700Y-17540000D01*
%TO.N,ESP32_RX1_3V3*%
X33604000Y-36472400D02*
X30249600Y-33118000D01*
X66088300Y-32780000D02*
X62395900Y-36472400D01*
X62395900Y-36472400D02*
X33604000Y-36472400D01*
X67240000Y-32780000D02*
X66088300Y-32780000D01*
%TO.N,MEGA_RX3_DIRECT*%
X10000000Y-22620000D02*
X10000000Y-23771700D01*
X66088300Y-50560000D02*
X64936600Y-49408300D01*
X8843200Y-28240200D02*
X8843200Y-24660000D01*
X9731500Y-23771700D02*
X10000000Y-23771700D01*
X67240000Y-50560000D02*
X66088300Y-50560000D01*
X8843200Y-24660000D02*
X9731500Y-23771700D01*
X30011300Y-49408300D02*
X8843200Y-28240200D01*
X64936600Y-49408300D02*
X30011300Y-49408300D01*
%TO.N,ESP32_RX2_3V3*%
X33289100Y-50966900D02*
X50441400Y-50966900D01*
X52000000Y-50560000D02*
X50848300Y-50560000D01*
X50441400Y-50966900D02*
X50848300Y-50560000D01*
%TO.N,NRF_CE*%
X79820200Y-17540000D02*
X96000000Y-17540000D01*
X59501700Y-28970000D02*
X68390200Y-28970000D01*
X52000000Y-35320000D02*
X53151700Y-35320000D01*
X68390200Y-28970000D02*
X79820200Y-17540000D01*
X53151700Y-35320000D02*
X59501700Y-28970000D01*
%TO.N,NRF_CSN*%
X96524600Y-18691700D02*
X84473900Y-18691700D01*
X66089800Y-34050000D02*
X62279800Y-37860000D01*
X84473900Y-18691700D02*
X69115600Y-34050000D01*
X69115600Y-34050000D02*
X66089800Y-34050000D01*
X97388300Y-17540000D02*
X97388300Y-17828000D01*
X62279800Y-37860000D02*
X52000000Y-37860000D01*
X97388300Y-17828000D02*
X96524600Y-18691700D01*
X98540000Y-17540000D02*
X97388300Y-17540000D01*
%TO.N,NRF_MISO*%
X96000000Y-22620000D02*
X94848300Y-22620000D01*
X94848300Y-22620000D02*
X71988300Y-45480000D01*
X71988300Y-45480000D02*
X67240000Y-45480000D01*
%TO.N,NRF_MOSI*%
X98540000Y-20080000D02*
X97388300Y-20080000D01*
X68391700Y-37860000D02*
X84852800Y-21398900D01*
X97388300Y-20348600D02*
X97388300Y-20080000D01*
X67240000Y-37860000D02*
X68391700Y-37860000D01*
X96338000Y-21398900D02*
X97388300Y-20348600D01*
X84852800Y-21398900D02*
X96338000Y-21398900D01*
%TD*%
M02*
