%TF.GenerationSoftware,KiCad,Pcbnew,9.0.7*%
%TF.CreationDate,2026-09-19T22:54:29+02:00*%
%TF.ProjectId,regie_hub_mega_esp32,72656769-655f-4687-9562-5f6d6567615f,rev?*%
%TF.SameCoordinates,Original*%
%TF.FileFunction,Soldermask,Bot*%
%TF.FilePolarity,Negative*%
%FSLAX46Y46*%
G04 Gerber Fmt 4.6, Leading zero omitted, Abs format (unit mm)*
G04 Created by KiCad (PCBNEW 9.0.7) date 2026-09-19 22:54:29*
%MOMM*%
%LPD*%
G01*
G04 APERTURE LIST*
%ADD10O,1.700000X1.700000*%
%ADD11R,1.700000X1.700000*%
G04 APERTURE END LIST*
D10*
%TO.C,U_ESP32R*%
X67240000Y-50560000D03*
X67240000Y-48020000D03*
X67240000Y-45480000D03*
X67240000Y-42940000D03*
X67240000Y-40400000D03*
X67240000Y-37860000D03*
X67240000Y-35320000D03*
X67240000Y-32780000D03*
X67240000Y-30240000D03*
X67240000Y-27700000D03*
X67240000Y-25160000D03*
X67240000Y-22620000D03*
X67240000Y-20080000D03*
X67240000Y-17540000D03*
D11*
X67240000Y-15000000D03*
%TD*%
%TO.C,J_NRF*%
X96000000Y-15000000D03*
D10*
X98540000Y-15000000D03*
X96000000Y-17540000D03*
X98540000Y-17540000D03*
X96000000Y-20080000D03*
X98540000Y-20080000D03*
X96000000Y-22620000D03*
X98540000Y-22620000D03*
%TD*%
D11*
%TO.C,J_MEGA*%
X10000000Y-15000000D03*
D10*
X10000000Y-17540000D03*
X10000000Y-20080000D03*
X10000000Y-22620000D03*
X10000000Y-25160000D03*
X10000000Y-27700000D03*
%TD*%
D11*
%TO.C,U_REG*%
X60000000Y-65000000D03*
D10*
X60000000Y-67540000D03*
X60000000Y-70080000D03*
%TD*%
D11*
%TO.C,U_ESP32L*%
X52000000Y-15000000D03*
D10*
X52000000Y-17540000D03*
X52000000Y-20080000D03*
X52000000Y-22620000D03*
X52000000Y-25160000D03*
X52000000Y-27700000D03*
X52000000Y-30240000D03*
X52000000Y-32780000D03*
X52000000Y-35320000D03*
X52000000Y-37860000D03*
X52000000Y-40400000D03*
X52000000Y-42940000D03*
X52000000Y-45480000D03*
X52000000Y-48020000D03*
X52000000Y-50560000D03*
%TD*%
M02*
