%TF.GenerationSoftware,KiCad,Pcbnew,9.0.7*%
%TF.CreationDate,2026-09-19T22:54:29+02:00*%
%TF.ProjectId,regie_hub_mega_esp32,72656769-655f-4687-9562-5f6d6567615f,rev?*%
%TF.SameCoordinates,Original*%
%TF.FileFunction,Copper,L1,Top*%
%TF.FilePolarity,Positive*%
%FSLAX46Y46*%
G04 Gerber Fmt 4.6, Leading zero omitted, Abs format (unit mm)*
G04 Created by KiCad (PCBNEW 9.0.7) date 2026-09-19 22:54:29*
%MOMM*%
%LPD*%
G01*
G04 APERTURE LIST*
G04 Aperture macros list*
%AMRoundRect*
0 Rectangle with rounded corners*
0 $1 Rounding radius*
0 $2 $3 $4 $5 $6 $7 $8 $9 X,Y pos of 4 corners*
0 Add a 4 corners polygon primitive as box body*
4,1,4,$2,$3,$4,$5,$6,$7,$8,$9,$2,$3,0*
0 Add four circle primitives for the rounded corners*
1,1,$1+$1,$2,$3*
1,1,$1+$1,$4,$5*
1,1,$1+$1,$6,$7*
1,1,$1+$1,$8,$9*
0 Add four rect primitives between the rounded corners*
20,1,$1+$1,$2,$3,$4,$5,0*
20,1,$1+$1,$4,$5,$6,$7,0*
20,1,$1+$1,$6,$7,$8,$9,0*
20,1,$1+$1,$8,$9,$2,$3,0*%
G04 Aperture macros list end*
%TA.AperFunction,SMDPad,CuDef*%
%ADD10RoundRect,0.250000X-0.262500X-0.450000X0.262500X-0.450000X0.262500X0.450000X-0.262500X0.450000X0*%
%TD*%
%TA.AperFunction,ComponentPad*%
%ADD11O,1.700000X1.700000*%
%TD*%
%TA.AperFunction,ComponentPad*%
%ADD12R,1.700000X1.700000*%
%TD*%
%TA.AperFunction,SMDPad,CuDef*%
%ADD13RoundRect,0.250000X-0.250000X-0.475000X0.250000X-0.475000X0.250000X0.475000X-0.250000X0.475000X0*%
%TD*%
%TA.AperFunction,ViaPad*%
%ADD14C,0.600000*%
%TD*%
%TA.AperFunction,Conductor*%
%ADD15C,0.200000*%
%TD*%
G04 APERTURE END LIST*
D10*
%TO.P,R4,1*%
%TO.N,ESP32_RX2_3V3*%
X29087500Y-51000000D03*
%TO.P,R4,2*%
%TO.N,GND*%
X30912500Y-51000000D03*
%TD*%
D11*
%TO.P,U_ESP32R,16*%
%TO.N,MEGA_RX3_DIRECT*%
X67240000Y-50560000D03*
%TO.P,U_ESP32R,17*%
%TO.N,NRF_SCK*%
X67240000Y-48020000D03*
%TO.P,U_ESP32R,18*%
%TO.N,NRF_MISO*%
X67240000Y-45480000D03*
%TO.P,U_ESP32R,19*%
%TO.N,N/C*%
X67240000Y-42940000D03*
%TO.P,U_ESP32R,20*%
X67240000Y-40400000D03*
%TO.P,U_ESP32R,21*%
%TO.N,NRF_MOSI*%
X67240000Y-37860000D03*
%TO.P,U_ESP32R,22*%
%TO.N,MEGA_RX2_DIRECT*%
X67240000Y-35320000D03*
%TO.P,U_ESP32R,23*%
%TO.N,ESP32_RX1_3V3*%
X67240000Y-32780000D03*
%TO.P,U_ESP32R,24*%
%TO.N,N/C*%
X67240000Y-30240000D03*
%TO.P,U_ESP32R,25*%
X67240000Y-27700000D03*
%TO.P,U_ESP32R,26*%
X67240000Y-25160000D03*
%TO.P,U_ESP32R,27*%
X67240000Y-22620000D03*
%TO.P,U_ESP32R,28*%
X67240000Y-20080000D03*
%TO.P,U_ESP32R,29*%
X67240000Y-17540000D03*
D12*
%TO.P,U_ESP32R,30*%
X67240000Y-15000000D03*
%TD*%
%TO.P,J_NRF,1*%
%TO.N,GND*%
X96000000Y-15000000D03*
D11*
%TO.P,J_NRF,2*%
%TO.N,NRF_VCC_DEDIE*%
X98540000Y-15000000D03*
%TO.P,J_NRF,3*%
%TO.N,NRF_CE*%
X96000000Y-17540000D03*
%TO.P,J_NRF,4*%
%TO.N,NRF_CSN*%
X98540000Y-17540000D03*
%TO.P,J_NRF,5*%
%TO.N,NRF_SCK*%
X96000000Y-20080000D03*
%TO.P,J_NRF,6*%
%TO.N,NRF_MOSI*%
X98540000Y-20080000D03*
%TO.P,J_NRF,7*%
%TO.N,NRF_MISO*%
X96000000Y-22620000D03*
%TO.P,J_NRF,8*%
%TO.N,N/C*%
X98540000Y-22620000D03*
%TD*%
D10*
%TO.P,R3,1*%
%TO.N,MEGA_TX3_5V*%
X29087500Y-39000000D03*
%TO.P,R3,2*%
%TO.N,ESP32_RX2_3V3*%
X30912500Y-39000000D03*
%TD*%
D12*
%TO.P,J_MEGA,1*%
%TO.N,MEGA_TX2_5V*%
X10000000Y-15000000D03*
D11*
%TO.P,J_MEGA,2*%
%TO.N,MEGA_RX2_DIRECT*%
X10000000Y-17540000D03*
%TO.P,J_MEGA,3*%
%TO.N,MEGA_TX3_5V*%
X10000000Y-20080000D03*
%TO.P,J_MEGA,4*%
%TO.N,MEGA_RX3_DIRECT*%
X10000000Y-22620000D03*
%TO.P,J_MEGA,5*%
%TO.N,VCC_5V_MEGA*%
X10000000Y-25160000D03*
%TO.P,J_MEGA,6*%
%TO.N,GND*%
X10000000Y-27700000D03*
%TD*%
D10*
%TO.P,R2,1*%
%TO.N,ESP32_RX1_3V3*%
X29087500Y-27000000D03*
%TO.P,R2,2*%
%TO.N,GND*%
X30912500Y-27000000D03*
%TD*%
D13*
%TO.P,C2,1*%
%TO.N,NRF_VCC_DEDIE*%
X45050000Y-65000000D03*
%TO.P,C2,2*%
%TO.N,GND*%
X46950000Y-65000000D03*
%TD*%
%TO.P,C1,1*%
%TO.N,VCC_5V_MEGA*%
X29050000Y-65000000D03*
%TO.P,C1,2*%
%TO.N,GND*%
X30950000Y-65000000D03*
%TD*%
D10*
%TO.P,R1,1*%
%TO.N,MEGA_TX2_5V*%
X29087500Y-15000000D03*
%TO.P,R1,2*%
%TO.N,ESP32_RX1_3V3*%
X30912500Y-15000000D03*
%TD*%
D13*
%TO.P,C3,1*%
%TO.N,NRF_VCC_DEDIE*%
X81050000Y-19000000D03*
%TO.P,C3,2*%
%TO.N,GND*%
X82950000Y-19000000D03*
%TD*%
D12*
%TO.P,U_REG,1*%
%TO.N,VCC_5V_MEGA*%
X60000000Y-65000000D03*
D11*
%TO.P,U_REG,2*%
%TO.N,GND*%
X60000000Y-67540000D03*
%TO.P,U_REG,3*%
%TO.N,NRF_VCC_DEDIE*%
X60000000Y-70080000D03*
%TD*%
D12*
%TO.P,U_ESP32L,1*%
%TO.N,N/C*%
X52000000Y-15000000D03*
D11*
%TO.P,U_ESP32L,2*%
%TO.N,GND*%
X52000000Y-17540000D03*
%TO.P,U_ESP32L,3*%
%TO.N,VCC_5V_MEGA*%
X52000000Y-20080000D03*
%TO.P,U_ESP32L,4*%
%TO.N,N/C*%
X52000000Y-22620000D03*
%TO.P,U_ESP32L,5*%
X52000000Y-25160000D03*
%TO.P,U_ESP32L,6*%
X52000000Y-27700000D03*
%TO.P,U_ESP32L,7*%
X52000000Y-30240000D03*
%TO.P,U_ESP32L,8*%
X52000000Y-32780000D03*
%TO.P,U_ESP32L,9*%
%TO.N,NRF_CE*%
X52000000Y-35320000D03*
%TO.P,U_ESP32L,10*%
%TO.N,NRF_CSN*%
X52000000Y-37860000D03*
%TO.P,U_ESP32L,11*%
%TO.N,N/C*%
X52000000Y-40400000D03*
%TO.P,U_ESP32L,12*%
X52000000Y-42940000D03*
%TO.P,U_ESP32L,13*%
X52000000Y-45480000D03*
%TO.P,U_ESP32L,14*%
X52000000Y-48020000D03*
%TO.P,U_ESP32L,15*%
%TO.N,ESP32_RX2_3V3*%
X52000000Y-50560000D03*
%TD*%
D14*
%TO.N,GND*%
X24285000Y-30147600D03*
%TO.N,VCC_5V_MEGA*%
X36214200Y-65792400D03*
%TO.N,MEGA_RX2_DIRECT*%
X63054900Y-18266000D03*
%TO.N,ESP32_RX1_3V3*%
X30249600Y-33118000D03*
%TO.N,ESP32_RX2_3V3*%
X33289100Y-50966900D03*
%TD*%
D15*
%TO.N,GND*%
X51712100Y-18691700D02*
X45908000Y-24495800D01*
X46950000Y-65000000D02*
X45908000Y-63958000D01*
X31992000Y-63958000D02*
X30950000Y-65000000D01*
X30000000Y-48593500D02*
X28272300Y-50321200D01*
X45908000Y-63958000D02*
X31992000Y-63958000D01*
X30912500Y-27000000D02*
X30912500Y-33369000D01*
X28272300Y-50321200D02*
X28272300Y-51699400D01*
X94848300Y-15000000D02*
X90848300Y-19000000D01*
X30000000Y-35862600D02*
X30000000Y-48593500D01*
X30950000Y-57977400D02*
X30950000Y-58018700D01*
X28272300Y-51699400D02*
X28605600Y-52032700D01*
X30950000Y-52099000D02*
X30950000Y-57213600D01*
X30912500Y-33369000D02*
X29209500Y-35072000D01*
X29209500Y-35072000D02*
X24285000Y-30147600D01*
X52000000Y-17540000D02*
X52000000Y-18691700D01*
X60000000Y-67540000D02*
X49490000Y-67540000D01*
X90848300Y-19000000D02*
X82950000Y-19000000D01*
X49490000Y-67540000D02*
X46950000Y-65000000D01*
X30950000Y-51689500D02*
X30950000Y-51730800D01*
X30950000Y-58018700D02*
X30950000Y-65000000D01*
X30912500Y-51000000D02*
X30950000Y-51037500D01*
X30950000Y-52032700D02*
X30950000Y-52099000D01*
X30950000Y-57213600D02*
X30950000Y-57977400D01*
X96000000Y-15000000D02*
X94848300Y-15000000D01*
X52000000Y-18691700D02*
X51712100Y-18691700D01*
X30950000Y-51037500D02*
X30950000Y-51689500D01*
X45908000Y-24495800D02*
X45908000Y-63958000D01*
X29209500Y-35072000D02*
X30000000Y-35862600D01*
X30950000Y-51730800D02*
X30950000Y-52032700D01*
X28605600Y-52032700D02*
X30950000Y-52032700D01*
%TO.N,VCC_5V_MEGA*%
X52268500Y-21231700D02*
X52000000Y-21231700D01*
X29050000Y-65000000D02*
X30120900Y-66070900D01*
X60000000Y-28963200D02*
X52268500Y-21231700D01*
X30120900Y-66070900D02*
X35935700Y-66070900D01*
X52000000Y-20080000D02*
X52000000Y-21231700D01*
X35935700Y-66070900D02*
X36214200Y-65792400D01*
X60000000Y-65000000D02*
X60000000Y-28963200D01*
%TO.N,NRF_VCC_DEDIE*%
X98540000Y-15000000D02*
X97388300Y-15000000D01*
X81050000Y-33304800D02*
X81050000Y-19000000D01*
X61151700Y-68064600D02*
X61151700Y-52417700D01*
X60288000Y-68928300D02*
X61151700Y-68064600D01*
X94811900Y-16151700D02*
X90882000Y-20081600D01*
X97388300Y-15000000D02*
X97388300Y-15791800D01*
X90882000Y-20081600D02*
X82131600Y-20081600D01*
X82131600Y-20081600D02*
X81050000Y-19000000D01*
X60000000Y-68928300D02*
X60288000Y-68928300D01*
X45050000Y-65000000D02*
X50130000Y-70080000D01*
X97388300Y-15791800D02*
X97028400Y-16151700D01*
X61151700Y-52417700D02*
X66819400Y-46750000D01*
X60000000Y-70080000D02*
X60000000Y-68928300D01*
X67604800Y-46750000D02*
X81050000Y-33304800D01*
X66819400Y-46750000D02*
X67604800Y-46750000D01*
X97028400Y-16151700D02*
X94811900Y-16151700D01*
X50130000Y-70080000D02*
X60000000Y-70080000D01*
%TO.N,MEGA_RX2_DIRECT*%
X67240000Y-35320000D02*
X67240000Y-34168300D01*
X63054900Y-30251700D02*
X66971500Y-34168300D01*
X66971500Y-34168300D02*
X67240000Y-34168300D01*
X63054900Y-18266000D02*
X63054900Y-30251700D01*
%TO.N,MEGA_TX2_5V*%
X10000000Y-15000000D02*
X29087500Y-15000000D01*
%TO.N,ESP32_RX1_3V3*%
X30912500Y-15000000D02*
X30912500Y-25329100D01*
X29241600Y-32110000D02*
X30249600Y-33118000D01*
X29241600Y-27000000D02*
X29087500Y-27000000D01*
X29241600Y-27000000D02*
X29241600Y-32110000D01*
X30912500Y-25329100D02*
X29241600Y-27000000D01*
%TO.N,MEGA_TX3_5V*%
X10000000Y-20080000D02*
X11151700Y-20080000D01*
X11151700Y-21064200D02*
X11151700Y-20080000D01*
X29087500Y-39000000D02*
X11151700Y-21064200D01*
%TO.N,ESP32_RX2_3V3*%
X30912500Y-49175000D02*
X29087500Y-51000000D01*
X30912500Y-47478000D02*
X30912500Y-49175000D01*
X31497200Y-49175000D02*
X33289100Y-50966900D01*
X30912500Y-47436700D02*
X30912500Y-47478000D01*
X30912500Y-49175000D02*
X31497200Y-49175000D01*
X30912500Y-39000000D02*
X30912500Y-47436700D01*
%TO.N,NRF_SCK*%
X95180000Y-21231700D02*
X96000000Y-21231700D01*
X67240000Y-48020000D02*
X68391700Y-48020000D01*
X68391700Y-48020000D02*
X95180000Y-21231700D01*
X96000000Y-20080000D02*
X96000000Y-21231700D01*
%TD*%
M02*
