M48
; DRILL file {KiCad 9.0.7} date 2026-09-19T22:54:31+0200
; FORMAT={-:-/ absolute / metric / decimal}
; #@! TF.CreationDate,2026-09-19T22:54:31+02:00
; #@! TF.GenerationSoftware,Kicad,Pcbnew,9.0.7
; #@! TF.FileFunction,Plated,1,2,PTH
FMAT,2
METRIC
; #@! TA.AperFunction,Plated,PTH,ViaDrill
T1C0.300
; #@! TA.AperFunction,Plated,PTH,ComponentDrill
T2C1.000
%
G90
G05
T1
X24.285Y-30.148
X30.25Y-33.118
X33.289Y-50.967
X36.214Y-65.792
X63.055Y-18.266
T2
X10.0Y-15.0
X10.0Y-17.54
X10.0Y-20.08
X10.0Y-22.62
X10.0Y-25.16
X10.0Y-27.7
X52.0Y-15.0
X52.0Y-17.54
X52.0Y-20.08
X52.0Y-22.62
X52.0Y-25.16
X52.0Y-27.7
X52.0Y-30.24
X52.0Y-32.78
X52.0Y-35.32
X52.0Y-37.86
X52.0Y-40.4
X52.0Y-42.94
X52.0Y-45.48
X52.0Y-48.02
X52.0Y-50.56
X60.0Y-65.0
X60.0Y-67.54
X60.0Y-70.08
X67.24Y-15.0
X67.24Y-17.54
X67.24Y-20.08
X67.24Y-22.62
X67.24Y-25.16
X67.24Y-27.7
X67.24Y-30.24
X67.24Y-32.78
X67.24Y-35.32
X67.24Y-37.86
X67.24Y-40.4
X67.24Y-42.94
X67.24Y-45.48
X67.24Y-48.02
X67.24Y-50.56
X96.0Y-15.0
X96.0Y-17.54
X96.0Y-20.08
X96.0Y-22.62
X98.54Y-15.0
X98.54Y-17.54
X98.54Y-20.08
X98.54Y-22.62
M30
