%TF.GenerationSoftware,KiCad,Pcbnew,9.0.7*%
%TF.CreationDate,2026-09-19T22:54:29+02:00*%
%TF.ProjectId,regie_hub_mega_esp32,72656769-655f-4687-9562-5f6d6567615f,rev?*%
%TF.SameCoordinates,Original*%
%TF.FileFunction,Legend,Top*%
%TF.FilePolarity,Positive*%
%FSLAX46Y46*%
G04 Gerber Fmt 4.6, Leading zero omitted, Abs format (unit mm)*
G04 Created by KiCad (PCBNEW 9.0.7) date 2026-09-19 22:54:29*
%MOMM*%
%LPD*%
G01*
G04 APERTURE LIST*
%ADD10C,0.150000*%
%ADD11C,0.120000*%
G04 APERTURE END LIST*
D10*
X8989160Y-9501080D02*
X8622493Y-8977271D01*
X8360588Y-9501080D02*
X8360588Y-8401080D01*
X8360588Y-8401080D02*
X8779636Y-8401080D01*
X8779636Y-8401080D02*
X8884398Y-8453461D01*
X8884398Y-8453461D02*
X8936779Y-8505842D01*
X8936779Y-8505842D02*
X8989160Y-8610604D01*
X8989160Y-8610604D02*
X8989160Y-8767747D01*
X8989160Y-8767747D02*
X8936779Y-8872509D01*
X8936779Y-8872509D02*
X8884398Y-8924890D01*
X8884398Y-8924890D02*
X8779636Y-8977271D01*
X8779636Y-8977271D02*
X8360588Y-8977271D01*
X9460588Y-8924890D02*
X9827255Y-8924890D01*
X9984398Y-9501080D02*
X9460588Y-9501080D01*
X9460588Y-9501080D02*
X9460588Y-8401080D01*
X9460588Y-8401080D02*
X9984398Y-8401080D01*
X11032017Y-8453461D02*
X10927255Y-8401080D01*
X10927255Y-8401080D02*
X10770112Y-8401080D01*
X10770112Y-8401080D02*
X10612969Y-8453461D01*
X10612969Y-8453461D02*
X10508207Y-8558223D01*
X10508207Y-8558223D02*
X10455826Y-8662985D01*
X10455826Y-8662985D02*
X10403445Y-8872509D01*
X10403445Y-8872509D02*
X10403445Y-9029652D01*
X10403445Y-9029652D02*
X10455826Y-9239176D01*
X10455826Y-9239176D02*
X10508207Y-9343938D01*
X10508207Y-9343938D02*
X10612969Y-9448700D01*
X10612969Y-9448700D02*
X10770112Y-9501080D01*
X10770112Y-9501080D02*
X10874874Y-9501080D01*
X10874874Y-9501080D02*
X11032017Y-9448700D01*
X11032017Y-9448700D02*
X11084398Y-9396319D01*
X11084398Y-9396319D02*
X11084398Y-9029652D01*
X11084398Y-9029652D02*
X10874874Y-9029652D01*
X11555826Y-9501080D02*
X11555826Y-8401080D01*
X12079636Y-8924890D02*
X12446303Y-8924890D01*
X12603446Y-9501080D02*
X12079636Y-9501080D01*
X12079636Y-9501080D02*
X12079636Y-8401080D01*
X12079636Y-8401080D02*
X12603446Y-8401080D01*
X13912969Y-9501080D02*
X13912969Y-8401080D01*
X13912969Y-8924890D02*
X14541541Y-8924890D01*
X14541541Y-9501080D02*
X14541541Y-8401080D01*
X15065350Y-8401080D02*
X15065350Y-9291557D01*
X15065350Y-9291557D02*
X15117731Y-9396319D01*
X15117731Y-9396319D02*
X15170112Y-9448700D01*
X15170112Y-9448700D02*
X15274874Y-9501080D01*
X15274874Y-9501080D02*
X15484398Y-9501080D01*
X15484398Y-9501080D02*
X15589160Y-9448700D01*
X15589160Y-9448700D02*
X15641541Y-9396319D01*
X15641541Y-9396319D02*
X15693922Y-9291557D01*
X15693922Y-9291557D02*
X15693922Y-8401080D01*
X16584398Y-8924890D02*
X16741541Y-8977271D01*
X16741541Y-8977271D02*
X16793922Y-9029652D01*
X16793922Y-9029652D02*
X16846303Y-9134414D01*
X16846303Y-9134414D02*
X16846303Y-9291557D01*
X16846303Y-9291557D02*
X16793922Y-9396319D01*
X16793922Y-9396319D02*
X16741541Y-9448700D01*
X16741541Y-9448700D02*
X16636779Y-9501080D01*
X16636779Y-9501080D02*
X16217731Y-9501080D01*
X16217731Y-9501080D02*
X16217731Y-8401080D01*
X16217731Y-8401080D02*
X16584398Y-8401080D01*
X16584398Y-8401080D02*
X16689160Y-8453461D01*
X16689160Y-8453461D02*
X16741541Y-8505842D01*
X16741541Y-8505842D02*
X16793922Y-8610604D01*
X16793922Y-8610604D02*
X16793922Y-8715366D01*
X16793922Y-8715366D02*
X16741541Y-8820128D01*
X16741541Y-8820128D02*
X16689160Y-8872509D01*
X16689160Y-8872509D02*
X16584398Y-8924890D01*
X16584398Y-8924890D02*
X16217731Y-8924890D01*
X29833333Y-49804819D02*
X29500000Y-49328628D01*
X29261905Y-49804819D02*
X29261905Y-48804819D01*
X29261905Y-48804819D02*
X29642857Y-48804819D01*
X29642857Y-48804819D02*
X29738095Y-48852438D01*
X29738095Y-48852438D02*
X29785714Y-48900057D01*
X29785714Y-48900057D02*
X29833333Y-48995295D01*
X29833333Y-48995295D02*
X29833333Y-49138152D01*
X29833333Y-49138152D02*
X29785714Y-49233390D01*
X29785714Y-49233390D02*
X29738095Y-49281009D01*
X29738095Y-49281009D02*
X29642857Y-49328628D01*
X29642857Y-49328628D02*
X29261905Y-49328628D01*
X30690476Y-49138152D02*
X30690476Y-49804819D01*
X30452381Y-48757200D02*
X30214286Y-49471485D01*
X30214286Y-49471485D02*
X30833333Y-49471485D01*
X63692381Y-11684819D02*
X63692381Y-12494342D01*
X63692381Y-12494342D02*
X63740000Y-12589580D01*
X63740000Y-12589580D02*
X63787619Y-12637200D01*
X63787619Y-12637200D02*
X63882857Y-12684819D01*
X63882857Y-12684819D02*
X64073333Y-12684819D01*
X64073333Y-12684819D02*
X64168571Y-12637200D01*
X64168571Y-12637200D02*
X64216190Y-12589580D01*
X64216190Y-12589580D02*
X64263809Y-12494342D01*
X64263809Y-12494342D02*
X64263809Y-11684819D01*
X64501905Y-12780057D02*
X65263809Y-12780057D01*
X65501905Y-12161009D02*
X65835238Y-12161009D01*
X65978095Y-12684819D02*
X65501905Y-12684819D01*
X65501905Y-12684819D02*
X65501905Y-11684819D01*
X65501905Y-11684819D02*
X65978095Y-11684819D01*
X66359048Y-12637200D02*
X66501905Y-12684819D01*
X66501905Y-12684819D02*
X66740000Y-12684819D01*
X66740000Y-12684819D02*
X66835238Y-12637200D01*
X66835238Y-12637200D02*
X66882857Y-12589580D01*
X66882857Y-12589580D02*
X66930476Y-12494342D01*
X66930476Y-12494342D02*
X66930476Y-12399104D01*
X66930476Y-12399104D02*
X66882857Y-12303866D01*
X66882857Y-12303866D02*
X66835238Y-12256247D01*
X66835238Y-12256247D02*
X66740000Y-12208628D01*
X66740000Y-12208628D02*
X66549524Y-12161009D01*
X66549524Y-12161009D02*
X66454286Y-12113390D01*
X66454286Y-12113390D02*
X66406667Y-12065771D01*
X66406667Y-12065771D02*
X66359048Y-11970533D01*
X66359048Y-11970533D02*
X66359048Y-11875295D01*
X66359048Y-11875295D02*
X66406667Y-11780057D01*
X66406667Y-11780057D02*
X66454286Y-11732438D01*
X66454286Y-11732438D02*
X66549524Y-11684819D01*
X66549524Y-11684819D02*
X66787619Y-11684819D01*
X66787619Y-11684819D02*
X66930476Y-11732438D01*
X67359048Y-12684819D02*
X67359048Y-11684819D01*
X67359048Y-11684819D02*
X67740000Y-11684819D01*
X67740000Y-11684819D02*
X67835238Y-11732438D01*
X67835238Y-11732438D02*
X67882857Y-11780057D01*
X67882857Y-11780057D02*
X67930476Y-11875295D01*
X67930476Y-11875295D02*
X67930476Y-12018152D01*
X67930476Y-12018152D02*
X67882857Y-12113390D01*
X67882857Y-12113390D02*
X67835238Y-12161009D01*
X67835238Y-12161009D02*
X67740000Y-12208628D01*
X67740000Y-12208628D02*
X67359048Y-12208628D01*
X68263810Y-11684819D02*
X68882857Y-11684819D01*
X68882857Y-11684819D02*
X68549524Y-12065771D01*
X68549524Y-12065771D02*
X68692381Y-12065771D01*
X68692381Y-12065771D02*
X68787619Y-12113390D01*
X68787619Y-12113390D02*
X68835238Y-12161009D01*
X68835238Y-12161009D02*
X68882857Y-12256247D01*
X68882857Y-12256247D02*
X68882857Y-12494342D01*
X68882857Y-12494342D02*
X68835238Y-12589580D01*
X68835238Y-12589580D02*
X68787619Y-12637200D01*
X68787619Y-12637200D02*
X68692381Y-12684819D01*
X68692381Y-12684819D02*
X68406667Y-12684819D01*
X68406667Y-12684819D02*
X68311429Y-12637200D01*
X68311429Y-12637200D02*
X68263810Y-12589580D01*
X69263810Y-11780057D02*
X69311429Y-11732438D01*
X69311429Y-11732438D02*
X69406667Y-11684819D01*
X69406667Y-11684819D02*
X69644762Y-11684819D01*
X69644762Y-11684819D02*
X69740000Y-11732438D01*
X69740000Y-11732438D02*
X69787619Y-11780057D01*
X69787619Y-11780057D02*
X69835238Y-11875295D01*
X69835238Y-11875295D02*
X69835238Y-11970533D01*
X69835238Y-11970533D02*
X69787619Y-12113390D01*
X69787619Y-12113390D02*
X69216191Y-12684819D01*
X69216191Y-12684819D02*
X69835238Y-12684819D01*
X70835238Y-12684819D02*
X70501905Y-12208628D01*
X70263810Y-12684819D02*
X70263810Y-11684819D01*
X70263810Y-11684819D02*
X70644762Y-11684819D01*
X70644762Y-11684819D02*
X70740000Y-11732438D01*
X70740000Y-11732438D02*
X70787619Y-11780057D01*
X70787619Y-11780057D02*
X70835238Y-11875295D01*
X70835238Y-11875295D02*
X70835238Y-12018152D01*
X70835238Y-12018152D02*
X70787619Y-12113390D01*
X70787619Y-12113390D02*
X70740000Y-12161009D01*
X70740000Y-12161009D02*
X70644762Y-12208628D01*
X70644762Y-12208628D02*
X70263810Y-12208628D01*
X95579523Y-12124819D02*
X95579523Y-12839104D01*
X95579523Y-12839104D02*
X95531904Y-12981961D01*
X95531904Y-12981961D02*
X95436666Y-13077200D01*
X95436666Y-13077200D02*
X95293809Y-13124819D01*
X95293809Y-13124819D02*
X95198571Y-13124819D01*
X95817619Y-13220057D02*
X96579523Y-13220057D01*
X96817619Y-13124819D02*
X96817619Y-12124819D01*
X96817619Y-12124819D02*
X97389047Y-13124819D01*
X97389047Y-13124819D02*
X97389047Y-12124819D01*
X98436666Y-13124819D02*
X98103333Y-12648628D01*
X97865238Y-13124819D02*
X97865238Y-12124819D01*
X97865238Y-12124819D02*
X98246190Y-12124819D01*
X98246190Y-12124819D02*
X98341428Y-12172438D01*
X98341428Y-12172438D02*
X98389047Y-12220057D01*
X98389047Y-12220057D02*
X98436666Y-12315295D01*
X98436666Y-12315295D02*
X98436666Y-12458152D01*
X98436666Y-12458152D02*
X98389047Y-12553390D01*
X98389047Y-12553390D02*
X98341428Y-12601009D01*
X98341428Y-12601009D02*
X98246190Y-12648628D01*
X98246190Y-12648628D02*
X97865238Y-12648628D01*
X99198571Y-12601009D02*
X98865238Y-12601009D01*
X98865238Y-13124819D02*
X98865238Y-12124819D01*
X98865238Y-12124819D02*
X99341428Y-12124819D01*
X29833333Y-37804819D02*
X29500000Y-37328628D01*
X29261905Y-37804819D02*
X29261905Y-36804819D01*
X29261905Y-36804819D02*
X29642857Y-36804819D01*
X29642857Y-36804819D02*
X29738095Y-36852438D01*
X29738095Y-36852438D02*
X29785714Y-36900057D01*
X29785714Y-36900057D02*
X29833333Y-36995295D01*
X29833333Y-36995295D02*
X29833333Y-37138152D01*
X29833333Y-37138152D02*
X29785714Y-37233390D01*
X29785714Y-37233390D02*
X29738095Y-37281009D01*
X29738095Y-37281009D02*
X29642857Y-37328628D01*
X29642857Y-37328628D02*
X29261905Y-37328628D01*
X30166667Y-36804819D02*
X30785714Y-36804819D01*
X30785714Y-36804819D02*
X30452381Y-37185771D01*
X30452381Y-37185771D02*
X30595238Y-37185771D01*
X30595238Y-37185771D02*
X30690476Y-37233390D01*
X30690476Y-37233390D02*
X30738095Y-37281009D01*
X30738095Y-37281009D02*
X30785714Y-37376247D01*
X30785714Y-37376247D02*
X30785714Y-37614342D01*
X30785714Y-37614342D02*
X30738095Y-37709580D01*
X30738095Y-37709580D02*
X30690476Y-37757200D01*
X30690476Y-37757200D02*
X30595238Y-37804819D01*
X30595238Y-37804819D02*
X30309524Y-37804819D01*
X30309524Y-37804819D02*
X30214286Y-37757200D01*
X30214286Y-37757200D02*
X30166667Y-37709580D01*
X7809523Y-11684819D02*
X7809523Y-12399104D01*
X7809523Y-12399104D02*
X7761904Y-12541961D01*
X7761904Y-12541961D02*
X7666666Y-12637200D01*
X7666666Y-12637200D02*
X7523809Y-12684819D01*
X7523809Y-12684819D02*
X7428571Y-12684819D01*
X8047619Y-12780057D02*
X8809523Y-12780057D01*
X9047619Y-12684819D02*
X9047619Y-11684819D01*
X9047619Y-11684819D02*
X9380952Y-12399104D01*
X9380952Y-12399104D02*
X9714285Y-11684819D01*
X9714285Y-11684819D02*
X9714285Y-12684819D01*
X10190476Y-12161009D02*
X10523809Y-12161009D01*
X10666666Y-12684819D02*
X10190476Y-12684819D01*
X10190476Y-12684819D02*
X10190476Y-11684819D01*
X10190476Y-11684819D02*
X10666666Y-11684819D01*
X11619047Y-11732438D02*
X11523809Y-11684819D01*
X11523809Y-11684819D02*
X11380952Y-11684819D01*
X11380952Y-11684819D02*
X11238095Y-11732438D01*
X11238095Y-11732438D02*
X11142857Y-11827676D01*
X11142857Y-11827676D02*
X11095238Y-11922914D01*
X11095238Y-11922914D02*
X11047619Y-12113390D01*
X11047619Y-12113390D02*
X11047619Y-12256247D01*
X11047619Y-12256247D02*
X11095238Y-12446723D01*
X11095238Y-12446723D02*
X11142857Y-12541961D01*
X11142857Y-12541961D02*
X11238095Y-12637200D01*
X11238095Y-12637200D02*
X11380952Y-12684819D01*
X11380952Y-12684819D02*
X11476190Y-12684819D01*
X11476190Y-12684819D02*
X11619047Y-12637200D01*
X11619047Y-12637200D02*
X11666666Y-12589580D01*
X11666666Y-12589580D02*
X11666666Y-12256247D01*
X11666666Y-12256247D02*
X11476190Y-12256247D01*
X12047619Y-12399104D02*
X12523809Y-12399104D01*
X11952381Y-12684819D02*
X12285714Y-11684819D01*
X12285714Y-11684819D02*
X12619047Y-12684819D01*
X29833333Y-25804819D02*
X29500000Y-25328628D01*
X29261905Y-25804819D02*
X29261905Y-24804819D01*
X29261905Y-24804819D02*
X29642857Y-24804819D01*
X29642857Y-24804819D02*
X29738095Y-24852438D01*
X29738095Y-24852438D02*
X29785714Y-24900057D01*
X29785714Y-24900057D02*
X29833333Y-24995295D01*
X29833333Y-24995295D02*
X29833333Y-25138152D01*
X29833333Y-25138152D02*
X29785714Y-25233390D01*
X29785714Y-25233390D02*
X29738095Y-25281009D01*
X29738095Y-25281009D02*
X29642857Y-25328628D01*
X29642857Y-25328628D02*
X29261905Y-25328628D01*
X30214286Y-24900057D02*
X30261905Y-24852438D01*
X30261905Y-24852438D02*
X30357143Y-24804819D01*
X30357143Y-24804819D02*
X30595238Y-24804819D01*
X30595238Y-24804819D02*
X30690476Y-24852438D01*
X30690476Y-24852438D02*
X30738095Y-24900057D01*
X30738095Y-24900057D02*
X30785714Y-24995295D01*
X30785714Y-24995295D02*
X30785714Y-25090533D01*
X30785714Y-25090533D02*
X30738095Y-25233390D01*
X30738095Y-25233390D02*
X30166667Y-25804819D01*
X30166667Y-25804819D02*
X30785714Y-25804819D01*
X45833333Y-63679580D02*
X45785714Y-63727200D01*
X45785714Y-63727200D02*
X45642857Y-63774819D01*
X45642857Y-63774819D02*
X45547619Y-63774819D01*
X45547619Y-63774819D02*
X45404762Y-63727200D01*
X45404762Y-63727200D02*
X45309524Y-63631961D01*
X45309524Y-63631961D02*
X45261905Y-63536723D01*
X45261905Y-63536723D02*
X45214286Y-63346247D01*
X45214286Y-63346247D02*
X45214286Y-63203390D01*
X45214286Y-63203390D02*
X45261905Y-63012914D01*
X45261905Y-63012914D02*
X45309524Y-62917676D01*
X45309524Y-62917676D02*
X45404762Y-62822438D01*
X45404762Y-62822438D02*
X45547619Y-62774819D01*
X45547619Y-62774819D02*
X45642857Y-62774819D01*
X45642857Y-62774819D02*
X45785714Y-62822438D01*
X45785714Y-62822438D02*
X45833333Y-62870057D01*
X46214286Y-62870057D02*
X46261905Y-62822438D01*
X46261905Y-62822438D02*
X46357143Y-62774819D01*
X46357143Y-62774819D02*
X46595238Y-62774819D01*
X46595238Y-62774819D02*
X46690476Y-62822438D01*
X46690476Y-62822438D02*
X46738095Y-62870057D01*
X46738095Y-62870057D02*
X46785714Y-62965295D01*
X46785714Y-62965295D02*
X46785714Y-63060533D01*
X46785714Y-63060533D02*
X46738095Y-63203390D01*
X46738095Y-63203390D02*
X46166667Y-63774819D01*
X46166667Y-63774819D02*
X46785714Y-63774819D01*
X29833333Y-63679580D02*
X29785714Y-63727200D01*
X29785714Y-63727200D02*
X29642857Y-63774819D01*
X29642857Y-63774819D02*
X29547619Y-63774819D01*
X29547619Y-63774819D02*
X29404762Y-63727200D01*
X29404762Y-63727200D02*
X29309524Y-63631961D01*
X29309524Y-63631961D02*
X29261905Y-63536723D01*
X29261905Y-63536723D02*
X29214286Y-63346247D01*
X29214286Y-63346247D02*
X29214286Y-63203390D01*
X29214286Y-63203390D02*
X29261905Y-63012914D01*
X29261905Y-63012914D02*
X29309524Y-62917676D01*
X29309524Y-62917676D02*
X29404762Y-62822438D01*
X29404762Y-62822438D02*
X29547619Y-62774819D01*
X29547619Y-62774819D02*
X29642857Y-62774819D01*
X29642857Y-62774819D02*
X29785714Y-62822438D01*
X29785714Y-62822438D02*
X29833333Y-62870057D01*
X30785714Y-63774819D02*
X30214286Y-63774819D01*
X30500000Y-63774819D02*
X30500000Y-62774819D01*
X30500000Y-62774819D02*
X30404762Y-62917676D01*
X30404762Y-62917676D02*
X30309524Y-63012914D01*
X30309524Y-63012914D02*
X30214286Y-63060533D01*
X29833333Y-13804819D02*
X29500000Y-13328628D01*
X29261905Y-13804819D02*
X29261905Y-12804819D01*
X29261905Y-12804819D02*
X29642857Y-12804819D01*
X29642857Y-12804819D02*
X29738095Y-12852438D01*
X29738095Y-12852438D02*
X29785714Y-12900057D01*
X29785714Y-12900057D02*
X29833333Y-12995295D01*
X29833333Y-12995295D02*
X29833333Y-13138152D01*
X29833333Y-13138152D02*
X29785714Y-13233390D01*
X29785714Y-13233390D02*
X29738095Y-13281009D01*
X29738095Y-13281009D02*
X29642857Y-13328628D01*
X29642857Y-13328628D02*
X29261905Y-13328628D01*
X30785714Y-13804819D02*
X30214286Y-13804819D01*
X30500000Y-13804819D02*
X30500000Y-12804819D01*
X30500000Y-12804819D02*
X30404762Y-12947676D01*
X30404762Y-12947676D02*
X30309524Y-13042914D01*
X30309524Y-13042914D02*
X30214286Y-13090533D01*
X81833333Y-17679580D02*
X81785714Y-17727200D01*
X81785714Y-17727200D02*
X81642857Y-17774819D01*
X81642857Y-17774819D02*
X81547619Y-17774819D01*
X81547619Y-17774819D02*
X81404762Y-17727200D01*
X81404762Y-17727200D02*
X81309524Y-17631961D01*
X81309524Y-17631961D02*
X81261905Y-17536723D01*
X81261905Y-17536723D02*
X81214286Y-17346247D01*
X81214286Y-17346247D02*
X81214286Y-17203390D01*
X81214286Y-17203390D02*
X81261905Y-17012914D01*
X81261905Y-17012914D02*
X81309524Y-16917676D01*
X81309524Y-16917676D02*
X81404762Y-16822438D01*
X81404762Y-16822438D02*
X81547619Y-16774819D01*
X81547619Y-16774819D02*
X81642857Y-16774819D01*
X81642857Y-16774819D02*
X81785714Y-16822438D01*
X81785714Y-16822438D02*
X81833333Y-16870057D01*
X82166667Y-16774819D02*
X82785714Y-16774819D01*
X82785714Y-16774819D02*
X82452381Y-17155771D01*
X82452381Y-17155771D02*
X82595238Y-17155771D01*
X82595238Y-17155771D02*
X82690476Y-17203390D01*
X82690476Y-17203390D02*
X82738095Y-17251009D01*
X82738095Y-17251009D02*
X82785714Y-17346247D01*
X82785714Y-17346247D02*
X82785714Y-17584342D01*
X82785714Y-17584342D02*
X82738095Y-17679580D01*
X82738095Y-17679580D02*
X82690476Y-17727200D01*
X82690476Y-17727200D02*
X82595238Y-17774819D01*
X82595238Y-17774819D02*
X82309524Y-17774819D01*
X82309524Y-17774819D02*
X82214286Y-17727200D01*
X82214286Y-17727200D02*
X82166667Y-17679580D01*
X57880952Y-61684819D02*
X57880952Y-62494342D01*
X57880952Y-62494342D02*
X57928571Y-62589580D01*
X57928571Y-62589580D02*
X57976190Y-62637200D01*
X57976190Y-62637200D02*
X58071428Y-62684819D01*
X58071428Y-62684819D02*
X58261904Y-62684819D01*
X58261904Y-62684819D02*
X58357142Y-62637200D01*
X58357142Y-62637200D02*
X58404761Y-62589580D01*
X58404761Y-62589580D02*
X58452380Y-62494342D01*
X58452380Y-62494342D02*
X58452380Y-61684819D01*
X58690476Y-62780057D02*
X59452380Y-62780057D01*
X60261904Y-62684819D02*
X59928571Y-62208628D01*
X59690476Y-62684819D02*
X59690476Y-61684819D01*
X59690476Y-61684819D02*
X60071428Y-61684819D01*
X60071428Y-61684819D02*
X60166666Y-61732438D01*
X60166666Y-61732438D02*
X60214285Y-61780057D01*
X60214285Y-61780057D02*
X60261904Y-61875295D01*
X60261904Y-61875295D02*
X60261904Y-62018152D01*
X60261904Y-62018152D02*
X60214285Y-62113390D01*
X60214285Y-62113390D02*
X60166666Y-62161009D01*
X60166666Y-62161009D02*
X60071428Y-62208628D01*
X60071428Y-62208628D02*
X59690476Y-62208628D01*
X60690476Y-62161009D02*
X61023809Y-62161009D01*
X61166666Y-62684819D02*
X60690476Y-62684819D01*
X60690476Y-62684819D02*
X60690476Y-61684819D01*
X60690476Y-61684819D02*
X61166666Y-61684819D01*
X62119047Y-61732438D02*
X62023809Y-61684819D01*
X62023809Y-61684819D02*
X61880952Y-61684819D01*
X61880952Y-61684819D02*
X61738095Y-61732438D01*
X61738095Y-61732438D02*
X61642857Y-61827676D01*
X61642857Y-61827676D02*
X61595238Y-61922914D01*
X61595238Y-61922914D02*
X61547619Y-62113390D01*
X61547619Y-62113390D02*
X61547619Y-62256247D01*
X61547619Y-62256247D02*
X61595238Y-62446723D01*
X61595238Y-62446723D02*
X61642857Y-62541961D01*
X61642857Y-62541961D02*
X61738095Y-62637200D01*
X61738095Y-62637200D02*
X61880952Y-62684819D01*
X61880952Y-62684819D02*
X61976190Y-62684819D01*
X61976190Y-62684819D02*
X62119047Y-62637200D01*
X62119047Y-62637200D02*
X62166666Y-62589580D01*
X62166666Y-62589580D02*
X62166666Y-62256247D01*
X62166666Y-62256247D02*
X61976190Y-62256247D01*
X48547619Y-11684819D02*
X48547619Y-12494342D01*
X48547619Y-12494342D02*
X48595238Y-12589580D01*
X48595238Y-12589580D02*
X48642857Y-12637200D01*
X48642857Y-12637200D02*
X48738095Y-12684819D01*
X48738095Y-12684819D02*
X48928571Y-12684819D01*
X48928571Y-12684819D02*
X49023809Y-12637200D01*
X49023809Y-12637200D02*
X49071428Y-12589580D01*
X49071428Y-12589580D02*
X49119047Y-12494342D01*
X49119047Y-12494342D02*
X49119047Y-11684819D01*
X49357143Y-12780057D02*
X50119047Y-12780057D01*
X50357143Y-12161009D02*
X50690476Y-12161009D01*
X50833333Y-12684819D02*
X50357143Y-12684819D01*
X50357143Y-12684819D02*
X50357143Y-11684819D01*
X50357143Y-11684819D02*
X50833333Y-11684819D01*
X51214286Y-12637200D02*
X51357143Y-12684819D01*
X51357143Y-12684819D02*
X51595238Y-12684819D01*
X51595238Y-12684819D02*
X51690476Y-12637200D01*
X51690476Y-12637200D02*
X51738095Y-12589580D01*
X51738095Y-12589580D02*
X51785714Y-12494342D01*
X51785714Y-12494342D02*
X51785714Y-12399104D01*
X51785714Y-12399104D02*
X51738095Y-12303866D01*
X51738095Y-12303866D02*
X51690476Y-12256247D01*
X51690476Y-12256247D02*
X51595238Y-12208628D01*
X51595238Y-12208628D02*
X51404762Y-12161009D01*
X51404762Y-12161009D02*
X51309524Y-12113390D01*
X51309524Y-12113390D02*
X51261905Y-12065771D01*
X51261905Y-12065771D02*
X51214286Y-11970533D01*
X51214286Y-11970533D02*
X51214286Y-11875295D01*
X51214286Y-11875295D02*
X51261905Y-11780057D01*
X51261905Y-11780057D02*
X51309524Y-11732438D01*
X51309524Y-11732438D02*
X51404762Y-11684819D01*
X51404762Y-11684819D02*
X51642857Y-11684819D01*
X51642857Y-11684819D02*
X51785714Y-11732438D01*
X52214286Y-12684819D02*
X52214286Y-11684819D01*
X52214286Y-11684819D02*
X52595238Y-11684819D01*
X52595238Y-11684819D02*
X52690476Y-11732438D01*
X52690476Y-11732438D02*
X52738095Y-11780057D01*
X52738095Y-11780057D02*
X52785714Y-11875295D01*
X52785714Y-11875295D02*
X52785714Y-12018152D01*
X52785714Y-12018152D02*
X52738095Y-12113390D01*
X52738095Y-12113390D02*
X52690476Y-12161009D01*
X52690476Y-12161009D02*
X52595238Y-12208628D01*
X52595238Y-12208628D02*
X52214286Y-12208628D01*
X53119048Y-11684819D02*
X53738095Y-11684819D01*
X53738095Y-11684819D02*
X53404762Y-12065771D01*
X53404762Y-12065771D02*
X53547619Y-12065771D01*
X53547619Y-12065771D02*
X53642857Y-12113390D01*
X53642857Y-12113390D02*
X53690476Y-12161009D01*
X53690476Y-12161009D02*
X53738095Y-12256247D01*
X53738095Y-12256247D02*
X53738095Y-12494342D01*
X53738095Y-12494342D02*
X53690476Y-12589580D01*
X53690476Y-12589580D02*
X53642857Y-12637200D01*
X53642857Y-12637200D02*
X53547619Y-12684819D01*
X53547619Y-12684819D02*
X53261905Y-12684819D01*
X53261905Y-12684819D02*
X53166667Y-12637200D01*
X53166667Y-12637200D02*
X53119048Y-12589580D01*
X54119048Y-11780057D02*
X54166667Y-11732438D01*
X54166667Y-11732438D02*
X54261905Y-11684819D01*
X54261905Y-11684819D02*
X54500000Y-11684819D01*
X54500000Y-11684819D02*
X54595238Y-11732438D01*
X54595238Y-11732438D02*
X54642857Y-11780057D01*
X54642857Y-11780057D02*
X54690476Y-11875295D01*
X54690476Y-11875295D02*
X54690476Y-11970533D01*
X54690476Y-11970533D02*
X54642857Y-12113390D01*
X54642857Y-12113390D02*
X54071429Y-12684819D01*
X54071429Y-12684819D02*
X54690476Y-12684819D01*
X55595238Y-12684819D02*
X55119048Y-12684819D01*
X55119048Y-12684819D02*
X55119048Y-11684819D01*
D11*
%TO.C,R4*%
X29772936Y-50265000D02*
X30227064Y-50265000D01*
X29772936Y-51735000D02*
X30227064Y-51735000D01*
%TO.C,U_ESP32R*%
X65910000Y-16270000D02*
X65910000Y-51890000D01*
X65910000Y-16270000D02*
X68570000Y-16270000D01*
X65910000Y-51890000D02*
X68570000Y-51890000D01*
X67240000Y-13670000D02*
X68570000Y-13670000D01*
X68570000Y-13670000D02*
X68570000Y-15000000D01*
X68570000Y-16270000D02*
X68570000Y-51890000D01*
%TO.C,J_NRF*%
X94670000Y-13670000D02*
X96000000Y-13670000D01*
X94670000Y-15000000D02*
X94670000Y-13670000D01*
X94670000Y-16270000D02*
X94670000Y-23950000D01*
X94670000Y-16270000D02*
X97270000Y-16270000D01*
X94670000Y-23950000D02*
X99870000Y-23950000D01*
X97270000Y-13670000D02*
X99870000Y-13670000D01*
X97270000Y-16270000D02*
X97270000Y-13670000D01*
X99870000Y-13670000D02*
X99870000Y-23950000D01*
%TO.C,R3*%
X29772936Y-38265000D02*
X30227064Y-38265000D01*
X29772936Y-39735000D02*
X30227064Y-39735000D01*
%TO.C,J_MEGA*%
X8670000Y-16270000D02*
X8670000Y-29030000D01*
X8670000Y-16270000D02*
X11330000Y-16270000D01*
X8670000Y-29030000D02*
X11330000Y-29030000D01*
X10000000Y-13670000D02*
X11330000Y-13670000D01*
X11330000Y-13670000D02*
X11330000Y-15000000D01*
X11330000Y-16270000D02*
X11330000Y-29030000D01*
%TO.C,R2*%
X29772936Y-26265000D02*
X30227064Y-26265000D01*
X29772936Y-27735000D02*
X30227064Y-27735000D01*
%TO.C,C2*%
X45738748Y-64265000D02*
X46261252Y-64265000D01*
X45738748Y-65735000D02*
X46261252Y-65735000D01*
%TO.C,C1*%
X29738748Y-64265000D02*
X30261252Y-64265000D01*
X29738748Y-65735000D02*
X30261252Y-65735000D01*
%TO.C,R1*%
X29772936Y-14265000D02*
X30227064Y-14265000D01*
X29772936Y-15735000D02*
X30227064Y-15735000D01*
%TO.C,C3*%
X81738748Y-18265000D02*
X82261252Y-18265000D01*
X81738748Y-19735000D02*
X82261252Y-19735000D01*
%TO.C,U_REG*%
X58670000Y-66270000D02*
X58670000Y-71410000D01*
X58670000Y-66270000D02*
X61330000Y-66270000D01*
X58670000Y-71410000D02*
X61330000Y-71410000D01*
X60000000Y-63670000D02*
X61330000Y-63670000D01*
X61330000Y-63670000D02*
X61330000Y-65000000D01*
X61330000Y-66270000D02*
X61330000Y-71410000D01*
%TO.C,U_ESP32L*%
X50670000Y-16270000D02*
X50670000Y-51890000D01*
X50670000Y-16270000D02*
X53330000Y-16270000D01*
X50670000Y-51890000D02*
X53330000Y-51890000D01*
X52000000Y-13670000D02*
X53330000Y-13670000D01*
X53330000Y-13670000D02*
X53330000Y-15000000D01*
X53330000Y-16270000D02*
X53330000Y-51890000D01*
%TD*%
M02*
